<?xml version="1.0" encoding="UTF-8"?>
<svg version="1.1" xmlns="http://www.w3.org/2000/svg" width="512" height="512">
<path d="M0 0 C5.67799555 3.1326872 9.53534899 6.93153592 12.10546875 12.9375 C12.10546875 13.5975 12.10546875 14.2575 12.10546875 14.9375 C40.48546875 14.9375 68.86546875 14.9375 98.10546875 14.9375 C98.43546875 13.2875 98.76546875 11.6375 99.10546875 9.9375 C102.34097344 4.55245586 107.03617982 0.60532086 113.10546875 -1.0625 C120.7341664 -1.98863726 127.85594541 -1.91691335 134.10546875 2.9375 C138.16923073 6.69216151 141.04363449 10.41596185 142.10546875 15.9375 C142.02554687 16.78699219 141.945625 17.63648437 141.86328125 18.51171875 C141.59395683 21.50285209 141.5280688 23.98537993 142.10546875 26.9375 C144.82272758 30.16809489 148.46126088 31.88606948 152.10546875 33.9375 C154.29552181 35.3035206 156.46745475 36.6961629 158.640625 38.08886719 C161.09188287 39.6562772 163.55375852 41.2055366 166.01953125 42.75 C170.18687027 45.3607859 174.34968879 47.9785646 178.5078125 50.60400391 C180.10302093 51.61070453 181.69936049 52.61561522 183.296875 53.61865234 C186.98793793 55.94102339 190.65349198 58.28872481 194.26953125 60.7265625 C194.91043701 61.15428955 195.55134277 61.5820166 196.21166992 62.02270508 C197.92103393 63.16828205 199.62105621 64.32776414 201.3203125 65.48828125 C203.90822008 67.14729386 203.90822008 67.14729386 206.29296875 66.765625 C207.93915394 66.01348866 209.55580425 65.19753291 211.16796875 64.375 C217.19635175 61.7432543 223.67477678 62.20829241 229.85546875 64.0625 C235.90725984 67.55391793 240.67079199 71.174509 243.10546875 77.9375 C244.52751216 84.61016523 244.33987394 91.24286381 240.71875 97.23046875 C239.85180918 99.81274788 239.85180918 99.81274788 240.84448242 101.62084961 C242.17553667 103.68182808 243.60948551 105.61778936 245.10546875 107.5625 C245.65146729 108.30250244 246.19746582 109.04250488 246.76000977 109.80493164 C247.92873342 111.38534784 249.10552571 112.95982325 250.28955078 114.52880859 C252.06802203 116.88782948 253.82295313 119.26239865 255.5703125 121.64453125 C257.89356831 124.81159567 260.22468982 127.97257134 262.5625 131.12890625 C266.7071223 136.73728112 270.78241072 142.39514882 274.84350586 148.06420898 C276.99001763 151.05208441 279.13657236 153.97537865 281.47265625 156.8203125 C283.10546875 158.9375 283.10546875 158.9375 283.10546875 160.9375 C284.09546875 160.6075 285.08546875 160.2775 286.10546875 159.9375 C294.05237144 159.01190401 300.64229056 160.02232078 307.10546875 164.9375 C312.47578255 171.17012028 314.55656878 176.76985235 314.4375 184.953125 C313.77116157 190.94233158 311.46129605 195.73395051 307.05078125 199.859375 C302.15562841 203.41640648 298.12018529 204.71878303 292.10546875 204.9375 C292.01547607 205.51693359 291.9254834 206.09636719 291.83276367 206.69335938 C290.8072032 212.80406258 289.44424252 218.7836349 287.90625 224.78125 C287.60592361 225.95421631 287.60592361 225.95421631 287.29953003 227.15087891 C286.46083652 230.41369365 285.61720065 233.67515662 284.76538086 236.93457031 C284.13844407 239.33999912 283.52167917 241.74785549 282.90625 244.15625 C282.71049881 244.8937146 282.51474762 245.6311792 282.31306458 246.39099121 C281.2188524 250.66507348 281.2188524 250.66507348 282.10546875 254.9375 C282.86859375 255.494375 283.63171875 256.05125 284.41796875 256.625 C288.86592005 260.45230693 290.76999819 264.22323818 291.4921875 270.06640625 C291.7193926 276.8277166 291.35384787 282.48417124 287.10546875 287.9375 C282.84093925 292.45466751 278.6281214 295.46415912 272.34375 296.30859375 C264.8824184 296.47794307 259.20387434 295.41932641 253.10546875 290.9375 C248.10546875 285.67790632 248.10546875 285.67790632 248.10546875 281.9375 C247.40276855 282.01790527 246.70006836 282.09831055 245.97607422 282.18115234 C230.36711381 283.96003078 214.75790747 285.5922449 199.10546875 286.9375 C198.98042969 287.85402344 198.85539062 288.77054687 198.7265625 289.71484375 C197.7026962 295.02735757 195.34866951 298.27494152 191.0078125 301.4921875 C184.15819688 305.43489307 177.85578552 305.48415244 170.10546875 304.9375 C169.87601562 305.60523438 169.6465625 306.27296875 169.41015625 306.9609375 C167.73483345 310.78308113 165.53308797 314.09206061 163.23046875 317.5625 C162.24522193 319.06713782 161.26088255 320.57237014 160.27734375 322.078125 C159.76236328 322.86509766 159.24738281 323.65207031 158.71679688 324.46289062 C155.9405378 328.72655154 153.20654717 333.01663618 150.48046875 337.3125 C149.95984863 338.1267041 149.43922852 338.9409082 148.90283203 339.77978516 C148.42056152 340.54081543 147.93829102 341.3018457 147.44140625 342.0859375 C147.0139209 342.75802246 146.58643555 343.43010742 146.14599609 344.12255859 C144.95359288 346.06394941 144.95359288 346.06394941 144.10546875 348.9375 C144.74484375 350.030625 145.38421875 351.12375 146.04296875 352.25 C149.17309113 358.17096576 148.97979162 364.42189389 148.10546875 370.9375 C145.78369432 377.27051026 140.83684022 382.15647563 134.78125 385.046875 C128.78153437 387.04386064 121.61947684 387.00935709 115.79296875 384.4375 C110.16985504 381.11528459 106.09968638 376.40143066 103.66796875 370.375 C103.088181 366.83185266 103.06712075 363.5209077 103.10546875 359.9375 C91.51268922 353.78405871 79.87379626 347.74861897 68.10546875 341.9375 C67.56019531 342.48019531 67.01492188 343.02289063 66.453125 343.58203125 C58.46132054 351.16399958 52.04797064 353.49508625 41.046875 353.2421875 C37.4280474 352.86732886 34.31032145 351.94727316 30.9453125 350.59375 C28.96009312 349.76952184 28.96009312 349.76952184 26.10546875 349.9375 C24.08265797 351.68471319 22.23401708 353.43753243 20.37109375 355.34375 C19.53671783 356.18093567 19.53671783 356.18093567 18.68548584 357.03503418 C17.50523304 358.22201948 16.32858867 359.41260188 15.15527344 360.60644531 C13.38316879 362.40931901 11.60098532 364.20166973 9.81640625 365.9921875 C4.6343553 371.210554 -0.43175692 376.45588115 -5.20410156 382.05517578 C-7.2247425 384.30519624 -9.3687839 386.38671717 -11.55078125 388.48046875 C-12.34484375 389.24423828 -13.13890625 390.00800781 -13.95703125 390.79492188 C-15.60424075 392.36953801 -17.26078433 393.93443864 -18.92578125 395.49023438 C-19.70953125 396.25013672 -20.49328125 397.01003906 -21.30078125 397.79296875 C-22.37295898 398.80846802 -22.37295898 398.80846802 -23.46679688 399.84448242 C-25.17854722 401.87097406 -25.17854722 401.87097406 -24.6340332 404.4921875 C-24.38999756 405.29914063 -24.14596191 406.10609375 -23.89453125 406.9375 C-22.74220337 422.74894975 -22.74220337 422.74894975 -27.89453125 428.9375 C-33.20545378 433.97722649 -38.31901748 436.57994862 -45.64453125 437.3125 C-51.53761904 437.12057952 -57.20007291 435.16876005 -61.7578125 431.39453125 C-66.33843208 426.42745742 -68.95147145 420.70952333 -69.26953125 413.9375 C-68.94139894 406.66152272 -65.97860782 401.02157657 -60.89453125 395.9375 C-59.24964656 395.21876739 -57.58462572 394.54231642 -55.89453125 393.9375 C-56.13469971 392.80119141 -56.37486816 391.66488281 -56.62231445 390.49414062 C-58.65755466 380.68595932 -60.41918156 370.87032863 -61.9375 360.96875 C-62.47128978 357.59835151 -63.00866393 354.2285428 -63.54711914 350.85888672 C-63.90789118 348.55132883 -64.25525856 346.24164052 -64.59008789 343.93017578 C-65.08518959 340.54014067 -65.63121589 337.16171052 -66.1875 333.78125 C-66.32536423 332.74907349 -66.46322845 331.71689697 -66.60527039 330.65344238 C-67.4465195 325.27774404 -67.4465195 325.27774404 -70.98126221 321.43780518 C-73.26087685 320.42667699 -75.5146654 319.67165325 -77.89453125 318.9375 C-83.12385197 315.53763204 -86.66952965 311.8230148 -88.5078125 305.8046875 C-88.99100166 303.47171357 -89.11688534 301.30927699 -88.89453125 298.9375 C-89.97347656 298.83695312 -91.05242187 298.73640625 -92.1640625 298.6328125 C-98.82732777 297.80228879 -105.22697865 295.76744856 -111.66992188 293.93359375 C-113.1481543 293.52947266 -113.1481543 293.52947266 -114.65625 293.1171875 C-115.54272217 292.86694824 -116.42919434 292.61670898 -117.3425293 292.35888672 C-120.19553767 291.8877978 -122.13029547 292.12910807 -124.89453125 292.9375 C-126.90284441 294.47358388 -126.90284441 294.47358388 -128.70703125 296.375 C-133.40257377 300.6492602 -137.06461274 301.84572879 -143.33984375 301.99609375 C-150.87750241 301.63880412 -155.98620757 298.92442703 -161.20703125 293.5625 C-165.35598077 287.10857852 -167.11729472 281.61691167 -165.89453125 273.9375 C-163.6829777 267.67598212 -160.61404644 263.56584001 -155.89453125 258.9375 C-156.06992432 258.31553741 -156.24531738 257.69357483 -156.42602539 257.05276489 C-158.24579193 250.59773701 -160.06194655 244.14170088 -161.87597656 237.68505859 C-162.55408004 235.27333774 -163.23311403 232.86187832 -163.91308594 230.45068359 C-164.88849877 226.99123836 -165.86059625 223.53087653 -166.83203125 220.0703125 C-167.13826416 218.98694611 -167.44449707 217.90357971 -167.76000977 216.78738403 C-168.04030029 215.7864975 -168.32059082 214.78561096 -168.609375 213.75439453 C-168.8580835 212.87059113 -169.10679199 211.98678772 -169.36303711 211.07620239 C-169.89453125 208.9375 -169.89453125 208.9375 -169.89453125 206.9375 C-170.47460938 206.91171875 -171.0546875 206.8859375 -171.65234375 206.859375 C-178.94911448 206.32957647 -183.14076373 203.99048566 -188.14453125 198.625 C-192.43314729 193.35965728 -193.57556342 187.63431631 -192.89453125 180.9375 C-190.93208966 173.24920037 -187.47949328 168.35754301 -180.89453125 163.9375 C-175.53176003 161.19652805 -169.78183203 161.74893877 -163.89453125 161.9375 C-163.56001953 160.73673828 -163.56001953 160.73673828 -163.21875 159.51171875 C-161.52396737 154.93730546 -159.17319732 150.94732107 -156.70703125 146.75 C-155.62989765 144.89286155 -154.55446467 143.03473601 -153.48046875 141.17578125 C-152.90522461 140.1801416 -152.32998047 139.18450195 -151.73730469 138.15869141 C-148.03998403 131.69572787 -144.44942742 125.17289455 -140.8475647 118.65640259 C-139.91455509 116.96854557 -138.98072882 115.28114008 -138.046875 113.59375 C-137.51054443 112.62244141 -136.97421387 111.65113281 -136.42163086 110.65039062 C-135.38680267 108.8120196 -134.30756098 106.99807859 -133.18969727 105.20898438 C-131.70191671 103.08231428 -131.70191671 103.08231428 -132.01953125 100.9375 C-132.90210082 98.80431652 -132.90210082 98.80431652 -134.39453125 96.4375 C-137.46779571 91.31539257 -137.49443548 85.77371113 -136.89453125 79.9375 C-135.10797976 73.21102602 -131.643315 68.78262948 -125.89453125 64.9375 C-120.53268194 61.88124589 -114.63959957 61.32498447 -108.64453125 62.6875 C-104.89453125 63.9375 -104.89453125 63.9375 -102.26953125 65.6875 C-99.94158789 67.23977462 -99.94158789 67.23977462 -97.31640625 66.36328125 C-92.81151115 64.48624163 -88.8770069 61.99413456 -84.76953125 59.375 C-82.90579571 58.20307773 -81.04116248 57.03258225 -79.17578125 55.86328125 C-78.17289062 55.23373535 -77.17 54.60418945 -76.13671875 53.95556641 C-69.62764197 49.90405823 -63.05688932 45.95306261 -56.49359131 41.99020386 C-49.59838649 37.82577681 -42.7581161 33.60735909 -36.02587891 29.18310547 C-33.89453125 27.9375 -33.89453125 27.9375 -31.89453125 27.9375 C-31.98154297 26.56078125 -31.98154297 26.56078125 -32.0703125 25.15625 C-32.35729979 17.35019569 -32.33771983 11.82241331 -26.89453125 5.9375 C-19.64168944 -1.44824729 -9.82485849 -3.60642579 0 0 Z M12.10546875 26.9375 C9.63046875 31.3925 9.63046875 31.3925 7.10546875 35.9375 C5.01689447 37.68709102 3.06974042 38.79016129 0.6796875 40.0625 C-2.2324191 43.53101407 -1.05797317 48.75474158 -0.73310852 53.09329224 C-0.52223258 55.22375694 -0.27809852 57.34746719 -0.01953125 59.47265625 C0.11364502 60.61884682 0.11364502 60.61884682 0.24951172 61.78819275 C0.5300037 64.19272444 0.81759968 66.59634154 1.10546875 69 C1.29865081 70.64512673 1.49136324 72.29030868 1.68359375 73.93554688 C2.15213506 77.93685567 2.62704265 81.93736157 3.10546875 85.9375 C4.04720947 86.11780762 4.9889502 86.29811523 5.95922852 86.48388672 C7.20502686 86.73412598 8.4508252 86.98436523 9.734375 87.2421875 C10.96486572 87.48437012 12.19535645 87.72655273 13.46313477 87.97607422 C22.99835887 90.49297968 30.06243232 96.6008058 35.10546875 104.9375 C36.81994998 108.24784652 38.47481985 111.58516101 40.10546875 114.9375 C45.14118385 114.38898785 50.17656735 113.83755407 55.21166992 113.28344727 C56.92349657 113.095475 58.63541008 112.90829201 60.34741211 112.72192383 C62.81257181 112.45342691 65.27740199 112.18206417 67.7421875 111.91015625 C68.50383713 111.82782242 69.26548676 111.74548859 70.05021667 111.66065979 C73.77915089 111.24650753 77.4415519 110.75135188 81.10546875 109.9375 C81.19183594 109.33164063 81.27820313 108.72578125 81.3671875 108.1015625 C82.88363071 99.0585525 85.91651851 90.95615602 93.10546875 84.9375 C93.68039062 84.43476562 94.2553125 83.93203125 94.84765625 83.4140625 C99.33262395 79.72161921 103.47745366 77.89722899 109.1015625 76.48046875 C111.08828957 76.12053619 111.08828957 76.12053619 112.10546875 74.9375 C112.58090168 70.37686561 112.784296 65.80740019 112.98828125 61.22753906 C113.10339286 58.97806639 113.27396216 56.73766261 113.44921875 54.4921875 C114.18191984 47.31679796 114.18191984 47.31679796 111.49609375 41.03515625 C109.44246906 39.76780137 109.44246906 39.76780137 107.2109375 38.8671875 C102.10894422 36.6143593 100.09887727 31.92102131 98.10546875 26.9375 C69.72546875 26.9375 41.34546875 26.9375 12.10546875 26.9375 Z M132.35546875 39.3125 C130.10546875 40.9375 130.10546875 40.9375 125.10546875 42.9375 C124.77546875 53.8275 124.44546875 64.7175 124.10546875 75.9375 C127.73546875 77.2575 131.36546875 78.5775 135.10546875 79.9375 C141.87301787 83.52032012 147.97094739 89.90081941 151.10546875 96.9375 C162.00967622 94.64262758 172.81769374 92.04279607 183.60546875 89.25 C184.80469971 88.94054443 186.00393066 88.63108887 187.23950195 88.31225586 C192.80691014 86.99837743 192.80691014 86.99837743 198.10546875 84.9375 C198.76319303 81.90815509 198.76319303 81.90815509 199.10546875 78.9375 C192.66123259 74.33289028 186.11858727 69.99469935 179.35546875 65.875 C169.92735181 60.08604428 160.5785558 54.18044141 151.25390625 48.2265625 C150.42213867 47.69579102 149.59037109 47.16501953 148.73339844 46.61816406 C146.83605557 45.40473891 144.94117606 44.18745901 143.04785156 42.96777344 C142.04850586 42.32614258 141.04916016 41.68451172 140.01953125 41.0234375 C139.10381348 40.43353027 138.1880957 39.84362305 137.24462891 39.23583984 C134.66754386 37.5007197 134.66754386 37.5007197 132.35546875 39.3125 Z M-28.55395508 39.04882812 C-29.55966553 39.68240234 -30.56537598 40.31597656 -31.6015625 40.96875 C-32.15509399 41.31099609 -32.70862549 41.65324219 -33.27893066 42.00585938 C-35.09789949 43.13511003 -36.90199415 44.28613706 -38.70703125 45.4375 C-39.96732422 46.22494035 -41.22864781 47.01073347 -42.4909668 47.79492188 C-45.06107671 49.39383393 -47.62613882 51.00039362 -50.1875 52.61328125 C-54.53985598 55.34927314 -58.92842107 58.02422307 -63.32470703 60.68896484 C-65.23025605 61.84494842 -67.13235214 63.00664515 -69.03076172 64.17431641 C-73.18883068 66.72803836 -77.35094144 69.21788586 -81.65234375 71.5234375 C-82.36608154 71.91595703 -83.07981934 72.30847656 -83.81518555 72.71289062 C-85.10741731 73.41743146 -86.41299931 74.09832226 -87.73364258 74.74804688 C-89.67315961 75.73262094 -89.67315961 75.73262094 -91.89453125 77.9375 C-92.4088892 80.78593647 -92.19064906 83.01295503 -91.89453125 85.9375 C-85.40985001 88.94505355 -78.83635807 91.4965741 -72.09375 93.86328125 C-71.09495316 94.21512985 -70.09615631 94.56697845 -69.0670929 94.92948914 C-66.97279841 95.6651518 -64.87774935 96.39866954 -62.78198242 97.13012695 C-59.57029766 98.25410635 -56.36433308 99.39349064 -53.15820312 100.53320312 C-51.11621906 101.2483492 -49.07391236 101.96257488 -47.03125 102.67578125 C-45.59527718 103.18967155 -45.59527718 103.18967155 -44.1302948 103.71394348 C-43.23869156 104.02144028 -42.34708832 104.32893707 -41.4284668 104.64575195 C-40.64731003 104.92014603 -39.86615326 105.1945401 -39.06132507 105.47724915 C-36.60814135 105.99833237 -35.22701174 105.81919766 -32.89453125 104.9375 C-31.47201893 103.32702047 -31.47201893 103.32702047 -30.26953125 101.3125 C-24.86317694 93.7081077 -17.47982778 89.97242966 -8.89453125 86.9375 C-9.84080945 75.65975029 -10.8057114 64.38393952 -11.95703125 53.125 C-12.07570557 51.92653442 -12.07570557 51.92653442 -12.19677734 50.70385742 C-12.55813548 46.69267702 -12.55813548 46.69267702 -13.89453125 42.9375 C-15.64261685 42.1030256 -15.64261685 42.1030256 -17.70703125 41.4375 C-21.74015575 40.04520186 -21.74015575 40.04520186 -23.66943359 38.69921875 C-25.98735024 37.63077941 -25.98735024 37.63077941 -28.55395508 39.04882812 Z M-100.328125 101.171875 C-101.2416272 102.15945801 -101.2416272 102.15945801 -102.17358398 103.16699219 C-105.27909726 106.36193931 -108.88796851 106.88992105 -113.21118164 106.99243164 C-114.40215454 106.98264282 -114.40215454 106.98264282 -115.6171875 106.97265625 C-116.420354 106.96758057 -117.22352051 106.96250488 -118.05102539 106.95727539 C-118.65938232 106.95074951 -119.26773926 106.94422363 -119.89453125 106.9375 C-120.27037354 107.61401611 -120.64621582 108.29053223 -121.03344727 108.98754883 C-122.17811364 111.0479483 -123.32281075 113.10833069 -124.4675293 115.16870117 C-125.80652432 117.57885891 -127.14519234 119.98919789 -128.48364258 122.3996582 C-131.67054299 128.13844179 -134.85887669 133.8763954 -138.05683899 139.60902405 C-139.40853783 142.03227452 -140.75898198 144.45622316 -142.10934448 146.88021851 C-143.06134679 148.58789673 -144.01515065 150.29457021 -144.96899414 152.0012207 C-146.11697181 154.06254483 -147.25836062 156.12755903 -148.39160156 158.19702148 C-149.33653889 159.92004316 -150.29725275 161.63459985 -151.28027344 163.33618164 C-153.50404076 167.07573283 -153.50404076 167.07573283 -153.26171875 171.22265625 C-152.76929688 171.80917969 -152.276875 172.39570313 -151.76953125 173 C-148.98618298 176.43781124 -147.97524373 179.65067383 -146.89453125 183.9375 C-142.6887389 184.94839575 -138.47952986 185.94428035 -134.26953125 186.9375 C-133.07972656 187.22367187 -131.88992187 187.50984375 -130.6640625 187.8046875 C-129.51035156 188.07539063 -128.35664063 188.34609375 -127.16796875 188.625 C-126.11013184 188.87636719 -125.05229492 189.12773437 -123.96240234 189.38671875 C-120.84136162 189.94704565 -118.05726168 190.16190026 -114.89453125 189.9375 C-113.23210502 188.19534602 -113.23210502 188.19534602 -112.14453125 185.8125 C-108.14617406 179.14857136 -102.42675737 176.30081535 -95.33203125 173.5625 C-87.13158295 172.0715094 -80.71447979 173.22724757 -72.89453125 175.9375 C-70.89476803 176.6048766 -68.89482054 177.27170183 -66.89453125 177.9375 C-65.97671875 177.08027344 -65.05890625 176.22304687 -64.11328125 175.33984375 C-52.45333468 164.46867698 -52.45333468 164.46867698 -46.83984375 159.6328125 C-43.50893333 156.72997089 -40.25839963 153.73731787 -36.99609375 150.7578125 C-34.89453125 148.9375 -34.89453125 148.9375 -32.89453125 147.9375 C-33.50182922 144.05079302 -34.71314699 140.62733296 -36.17578125 137 C-37.73401738 132.52853981 -38.00885484 128.34094654 -37.95703125 123.625 C-37.94800781 122.55636719 -37.93898438 121.48773438 -37.9296875 120.38671875 C-37.91808594 119.57847656 -37.90648437 118.77023438 -37.89453125 117.9375 C-40.09229857 117.15582795 -42.29022865 116.37461922 -44.48828125 115.59375 C-45.17850372 115.34841019 -45.8687262 115.10307037 -46.5798645 114.85029602 C-50.40443285 113.49257772 -54.23164295 112.14306097 -58.06396484 110.80737305 C-59.62993792 110.26106289 -61.19585583 109.71459456 -62.76171875 109.16796875 C-63.93158829 108.759701 -63.93158829 108.759701 -65.12509155 108.34318542 C-69.85708171 106.68202338 -74.54227917 104.93475617 -79.21484375 103.11328125 C-80.29185547 102.70980469 -81.36886719 102.30632812 -82.47851562 101.890625 C-84.45921778 101.14770268 -86.42794223 100.37175379 -88.38085938 99.55859375 C-93.66959561 97.62980592 -95.97963757 97.32106711 -100.328125 101.171875 Z M194.84936523 97.93139648 C193.99515488 98.14839706 193.14094452 98.36539764 192.260849 98.588974 C191.34203445 98.82644852 190.42321991 99.06392303 189.4765625 99.30859375 C188.53112076 99.55037857 187.58567902 99.79216339 186.61158752 100.04127502 C184.61309331 100.55321845 182.61505169 101.06693149 180.61743164 101.58227539 C177.55272633 102.37248409 174.48646156 103.1563969 171.41992188 103.93945312 C169.48037296 104.43712682 167.54091661 104.93516147 165.6015625 105.43359375 C164.22030434 105.78676918 164.22030434 105.78676918 162.81114197 106.14707947 C161.96008377 106.36723221 161.10902557 106.58738495 160.23217773 106.81420898 C159.48177719 107.00740219 158.73137665 107.2005954 157.95823669 107.39964294 C156.03516351 107.89760025 156.03516351 107.89760025 154.10546875 108.9375 C153.7030209 111.32833834 153.40007139 113.6541479 153.16796875 116.0625 C152.59475166 121.68336663 151.50860926 125.89548858 149.10546875 130.9375 C150.42626644 132.05509805 151.74706564 133.17269433 153.06787109 134.2902832 C154.23098166 135.27446634 155.39406705 136.25867923 156.55712891 137.24291992 C159.57656915 139.79804925 162.59638077 142.35273628 165.6171875 144.90625 C166.17768799 145.38054443 166.73818848 145.85483887 167.31567383 146.34350586 C168.41934914 147.27594074 169.52464019 148.20646674 170.6315918 149.13500977 C172.90186544 151.0436839 175.13690732 152.96698066 177.30078125 154.99609375 C180.47263333 158.12128279 180.47263333 158.12128279 184.66796875 158.9375 C185.87453125 158.4425 185.87453125 158.4425 187.10546875 157.9375 C193.94014482 155.17108349 201.3816929 154.74806229 208.41796875 157.125 C215.16478621 160.09139213 218.93461343 164.47835028 222.10546875 170.9375 C222.46788034 172.26322498 222.80888118 173.59551464 223.10546875 174.9375 C246.59910353 175.82919354 246.59910353 175.82919354 270.10546875 175.9375 C272.37700536 172.1737964 272.37700536 172.1737964 273.05859375 167.9453125 C271.65621008 164.99111083 269.79402377 162.42895233 267.85546875 159.8125 C267.41364258 159.20559326 266.97181641 158.59868652 266.51660156 157.97338867 C265.5550208 156.65262921 264.59105396 155.33360441 263.625 154.01611328 C262.08725742 151.91258816 260.56315872 149.79983289 259.04296875 147.68359375 C251.67192266 137.42545012 244.26923723 127.18373728 236.67675781 117.08789062 C235.60964485 115.62749116 234.5863177 114.13428517 233.60449219 112.61523438 C232.21178335 110.52846932 230.90722593 108.68391115 229.10546875 106.9375 C225.72815296 106.12370529 225.72815296 106.12370529 222.23046875 106.6875 C216.10986032 107.03577487 211.97748959 106.83984679 207.10546875 102.9375 C205.32328428 101.01461676 203.73953097 98.99174965 202.10546875 96.9375 C199.37784075 96.9375 197.46225715 97.26217823 194.84936523 97.93139648 Z M71.515625 122.77734375 C70.77469101 122.86375626 70.03375702 122.95016876 69.27037048 123.03919983 C67.70431272 123.22242913 66.13836128 123.40656915 64.57250977 123.59155273 C62.1808635 123.87347997 59.78870991 124.15077094 57.39648438 124.42773438 C55.87366474 124.60648845 54.35087717 124.78551587 52.828125 124.96484375 C52.11447281 125.04717758 51.40082062 125.12951141 50.6655426 125.21434021 C47.4154073 125.6020355 44.25415167 126.02607915 41.10546875 126.9375 C40.85152344 127.96230469 40.59757813 128.98710937 40.3359375 130.04296875 C39.98870278 131.40375347 39.64102291 132.76442465 39.29296875 134.125 C39.12732422 134.79853516 38.96167969 135.47207031 38.79101562 136.16601562 C37.96823841 139.34845581 37.13015706 141.89912637 35.34375 144.67578125 C34.93511719 145.42214844 34.52648437 146.16851562 34.10546875 146.9375 C35.4316459 151.0534562 38.70513573 153.80808238 41.70703125 156.76953125 C42.26232513 157.32436691 42.81761902 157.87920258 43.38973999 158.45085144 C44.56589317 159.62398789 45.74447151 160.79469729 46.92529297 161.96313477 C48.70850329 163.72825734 50.48374899 165.50108023 52.2578125 167.27539062 C57.54284773 172.54342411 62.82813751 177.75784398 68.53271484 182.5769043 C70.13494903 183.96300351 71.62545406 185.42248686 73.10546875 186.9375 C75.43519103 186.03567202 77.72844854 185.13240028 79.94921875 183.984375 C90.67712961 178.62041957 102.59123389 177.71465005 114.10546875 180.9375 C123.9523966 184.72477994 131.88184182 190.38001297 138.10546875 198.9375 C149.0802976 197.05751039 167.35949205 191.6318116 174.91015625 182.83496094 C177.04545782 178.53513378 177.22428872 174.47393952 175.95117188 169.86914062 C173.56267624 164.41366214 168.78287746 161.39556544 163.99414062 158.23779297 C160.89258437 156.1024661 158.12110513 153.60401996 155.29296875 151.125 C150.69553428 147.20507495 145.99601533 143.4855436 141.10546875 139.9375 C140.48800781 140.34742188 139.87054688 140.75734375 139.234375 141.1796875 C129.85961523 147.14414653 120.62196704 149.59169087 109.53125 147.4375 C99.39776176 144.70626887 92.28253594 139.42413434 86.10546875 130.9375 C84.52940953 128.01116532 83.22894729 125.0640225 82.10546875 121.9375 C78.53454079 121.9375 75.05584791 122.36005133 71.515625 122.77734375 Z M-24.89453125 155.9375 C-25.51328125 156.51866577 -25.51328125 156.51866577 -26.14453125 157.11157227 C-37.12331822 167.41490652 -48.30095616 177.3341553 -59.89453125 186.9375 C-59.58708984 187.89849609 -59.58708984 187.89849609 -59.2734375 188.87890625 C-57.70625761 193.91037851 -56.46410951 198.69738003 -55.89453125 203.9375 C-52.13840751 205.54626808 -48.43479787 206.63482298 -44.45703125 207.5625 C-43.36519531 207.82289063 -42.27335937 208.08328125 -41.1484375 208.3515625 C-37.90280219 208.93601063 -35.17544655 209.31127516 -31.89453125 208.9375 C-30.10678371 207.40719686 -30.10678371 207.40719686 -28.89453125 205.25 C-24.31582899 198.51871304 -18.99074691 194.33720037 -10.8359375 192.46484375 C-1.53509105 191.02246649 7.01310062 192.98254614 14.87890625 198.1015625 C20.69703753 202.89896899 23.18036924 209.1122678 26.10546875 215.9375 C36.33546875 215.9375 46.56546875 215.9375 57.10546875 215.9375 C58.42546875 211.9775 59.74546875 208.0175 61.10546875 203.9375 C62.38177564 201.24307434 63.69197617 198.56255764 65.10546875 195.9375 C61.94307293 192.74573908 58.77478116 189.5598919 55.60546875 186.375 C54.27515625 185.03211914 54.27515625 185.03211914 52.91796875 183.66210938 C48.37110598 179.09853019 43.772081 174.69734226 38.87890625 170.50805664 C35.6972336 167.69036664 32.83147817 164.5640373 29.9765625 161.41796875 C28.49927801 159.81537001 28.49927801 159.81537001 26.10546875 157.9375 C24.00252794 157.86276565 24.00252794 157.86276565 22.10546875 158.9375 C21.38488281 159.246875 20.66429687 159.55625 19.921875 159.875 C18.42140118 160.58232908 16.92139916 161.29065988 15.421875 162 C5.69728602 165.93575271 -5.45066572 164.65421994 -15.078125 161.203125 C-18.50442986 159.66342628 -21.65922883 157.84580725 -24.89453125 155.9375 Z M223.10546875 186.9375 C222.40320734 188.17926695 221.71917766 189.43135599 221.04296875 190.6875 C220.66011719 191.38359375 220.27726562 192.0796875 219.8828125 192.796875 C218.93525861 195.40621939 219.06686648 196.38407502 220.10546875 198.9375 C221.4693989 201.08697512 221.4693989 201.08697512 223.2109375 203.25390625 C223.85788574 204.09115234 224.50483398 204.92839844 225.17138672 205.79101562 C225.87150879 206.68498047 226.57163086 207.57894531 227.29296875 208.5 C228.75913454 210.39611389 230.22395164 212.29327133 231.6875 214.19140625 C232.42822754 215.15062988 233.16895508 216.10985352 233.93212891 217.09814453 C237.17475787 221.33447062 240.32901743 225.63319656 243.48046875 229.9375 C244.34248901 231.10116089 244.34248901 231.10116089 245.22192383 232.28833008 C247.84957382 235.8358656 250.43473585 239.39652264 252.91796875 243.046875 C253.35447754 243.66691406 253.79098633 244.28695312 254.24072266 244.92578125 C255.38884177 246.55729513 256.51010556 248.20761834 257.62890625 249.859375 C259.8314518 252.13430461 259.8314518 252.13430461 262.17285156 252.03320312 C264.65968479 251.77107975 264.65968479 251.77107975 268.10546875 250.9375 C271.23774778 240.02504404 274.16299567 229.06035065 276.98046875 218.0625 C277.30281494 216.83241211 277.62516113 215.60232422 277.95727539 214.33496094 C278.25110107 213.17512695 278.54492676 212.01529297 278.84765625 210.8203125 C279.11433105 209.78277832 279.38100586 208.74524414 279.65576172 207.67626953 C280.10412029 204.94571226 280.14163773 203.47789808 279.10546875 200.9375 C278.34234375 200.195 277.57921875 199.4525 276.79296875 198.6875 C274.42480316 196.26426079 273.35573473 194.72910055 271.9375 191.765625 C271.41700073 190.68909668 271.41700073 190.68909668 270.88598633 189.59082031 C270.62841553 189.04522461 270.37084473 188.49962891 270.10546875 187.9375 C254.42736937 187.19785566 238.80090859 186.79722298 223.10546875 186.9375 Z M-155.01953125 198.9375 C-157.38284197 202.03995749 -157.96928498 203.35232778 -157.46728516 207.28198242 C-157.10554199 208.54373291 -156.74379883 209.8054834 -156.37109375 211.10546875 C-155.97415252 212.53686509 -155.57751731 213.96834632 -155.18115234 215.39990234 C-154.96803406 216.14367126 -154.75491577 216.88744019 -154.53533936 217.65374756 C-153.68792112 220.67383025 -152.9331272 223.71399445 -152.17544556 226.75759888 C-151.40257271 229.82504642 -150.58379638 232.87930186 -149.75976562 235.93334961 C-149.34429413 237.49779764 -148.94159067 239.06568429 -148.55078125 240.63647461 C-147.97273281 242.95080752 -147.352586 245.25010585 -146.72265625 247.55078125 C-146.55775696 248.2506868 -146.39285767 248.95059235 -146.22296143 249.67170715 C-145.4159037 252.47666591 -144.65127163 254.49980361 -142.0645752 255.99594116 C-139.97898392 256.80713624 -139.97898392 256.80713624 -137.9052124 257.36393738 C-130.84916635 259.37673004 -126.52520597 263.85995418 -122.64453125 269.875 C-121.57138031 272.82616508 -121.31166445 275.83417282 -120.89453125 278.9375 C-116.573236 280.08465878 -112.24991223 281.22372694 -107.92456055 282.35546875 C-106.45458092 282.74129187 -104.98516991 283.12928841 -103.51635742 283.51953125 C-101.40039847 284.08130295 -99.28249227 284.63512903 -97.1640625 285.1875 C-95.89151611 285.52265625 -94.61896973 285.8578125 -93.30786133 286.203125 C-90.3243782 286.8450188 -87.91807728 287.29053557 -84.89453125 286.9375 C-82.76650579 284.63183317 -82.76650579 284.63183317 -80.89453125 281.9375 C-79.58441941 280.90726472 -78.25418306 279.90141116 -76.89453125 278.9375 C-78.31942901 271.69866756 -79.76960197 264.46533297 -81.23632812 257.23486328 C-81.82744941 254.27355612 -82.38952243 251.30865406 -82.94140625 248.33984375 C-83.25835814 246.72641372 -83.5760146 245.11312186 -83.89453125 243.5 C-84.02375977 242.75637207 -84.15298828 242.01274414 -84.28613281 241.24658203 C-84.70299202 238.95429134 -84.70299202 238.95429134 -85.89453125 235.9375 C-88.16593429 234.41536811 -88.16593429 234.41536811 -90.89453125 233.9375 C-91.70792969 233.70289063 -92.52132812 233.46828125 -93.359375 233.2265625 C-94.17535156 233.00742187 -94.99132812 232.78828125 -95.83203125 232.5625 C-100.20683506 231.28651555 -103.23767884 229.61324566 -106.89453125 226.9375 C-107.88453125 226.6075 -108.87453125 226.2775 -109.89453125 225.9375 C-110.95703125 224.09765625 -110.95703125 224.09765625 -111.89453125 221.9375 C-112.38953125 221.06931641 -112.38953125 221.06931641 -112.89453125 220.18359375 C-115.61542377 215.26260454 -116.55665828 210.84725759 -117.109375 205.2578125 C-117.36847656 204.49210938 -117.62757812 203.72640625 -117.89453125 202.9375 C-122.93955478 200.53037562 -128.40991397 199.53880398 -133.83203125 198.3125 C-134.80849609 198.08304688 -135.78496094 197.85359375 -136.79101562 197.6171875 C-146.50671502 194.95150208 -146.50671502 194.95150208 -155.01953125 198.9375 Z M170.99609375 198.45703125 C170.39166443 198.71626877 169.78723511 198.97550629 169.16448975 199.24259949 C167.88268591 199.79324007 166.6016378 200.34564264 165.32128906 200.8996582 C163.37869498 201.73995319 161.4337312 202.57454472 159.48828125 203.40820312 C153.95537948 205.788802 148.47445677 208.20077651 143.10546875 210.9375 C143.20085937 211.65292969 143.29625 212.36835938 143.39453125 213.10546875 C144.65821862 224.46396102 142.8528241 234.2467793 139.10546875 244.9375 C141.60333543 246.98178754 144.10416028 249.02242572 146.60546875 251.0625 C147.3015625 251.63226563 147.99765625 252.20203125 148.71484375 252.7890625 C150.12568291 253.93863515 151.5415952 255.08200854 152.96240234 256.21923828 C154.40977026 257.37970483 155.84483055 258.55566589 157.26806641 259.74560547 C157.9594873 260.30393066 158.6509082 260.86225586 159.36328125 261.4375 C160.28584717 262.19933594 160.28584717 262.19933594 161.22705078 262.9765625 C163.09982135 264.16510541 163.09982135 264.16510541 165.38476562 263.5925293 C166.85630448 263.0448165 168.3121108 262.45383651 169.75390625 261.83203125 C175.43760455 259.66995997 181.27478138 260.3276519 186.85546875 262.5 C191.92060605 265.00562643 195.58239081 268.89134411 198.10546875 273.9375 C208.06904169 274.26755625 217.84478606 273.02919296 227.73046875 271.9375 C229.51557246 271.74430555 231.3007284 271.55159308 233.0859375 271.359375 C237.42640382 270.89097528 241.76610974 270.41604494 246.10546875 269.9375 C246.83548458 268.5528832 247.53871457 267.15412355 248.23046875 265.75 C248.62492187 264.97269531 249.019375 264.19539063 249.42578125 263.39453125 C250.3232161 260.15035584 249.66898642 258.87503562 248.10546875 255.9375 C247.09179584 254.42841041 246.01951694 252.95759518 244.90234375 251.5234375 C244.2585376 250.6893335 243.61473145 249.85522949 242.95141602 248.99584961 C241.91392212 247.66759155 241.91392212 247.66759155 240.85546875 246.3125 C239.39975804 244.42677146 237.94535726 242.54003107 236.4921875 240.65234375 C235.75790527 239.69956543 235.02362305 238.74678711 234.26708984 237.76513672 C231.61704245 234.29858501 229.01656724 230.79819433 226.43457031 227.28076172 C225.26473626 225.68767925 224.08837292 224.09936913 222.90527344 222.51611328 C220.36211931 219.1011665 217.91421957 215.70571156 215.7265625 212.05078125 C213.69807459 208.8343391 212.07530608 206.3143341 209.10546875 203.9375 C205.34086568 203.49331202 202.21126879 203.85768934 198.4765625 204.46875 C193.71148761 205.13133284 190.27163486 204.26856913 186.10546875 201.9375 C184.12044552 200.43346317 182.30137716 198.87962377 180.515625 197.14453125 C177.46616202 194.5343261 174.24072083 197.06139522 170.99609375 198.45703125 Z M-58.89453125 215.9375 C-59.21341309 216.47584473 -59.53229492 217.01418945 -59.86083984 217.56884766 C-64.15190284 224.65222733 -64.15190284 224.65222733 -67.51953125 227.3125 C-68.08929688 227.77398437 -68.6590625 228.23546875 -69.24609375 228.7109375 C-70.75932047 229.83689293 -72.32514438 230.89124209 -73.89453125 231.9375 C-73.28220213 241.55981472 -71.03464852 250.70775485 -68.83203125 260.0625 C-68.45060059 261.70299227 -68.06973652 263.3436164 -67.68945312 264.984375 C-66.76433904 268.9703004 -65.83157158 272.95436221 -64.89453125 276.9375 C-60.90661646 277.66663794 -60.90661646 277.66663794 -56.89453125 277.9375 C-54.56717342 276.06457745 -53.28032975 274.72496734 -51.58203125 272.375 C-51.12546143 271.79089355 -50.6688916 271.20678711 -50.19848633 270.60498047 C-49.23403929 269.36617766 -48.28135972 268.11813571 -47.33984375 266.86181641 C-45.43779839 264.32939723 -43.47234058 261.84988024 -41.50610352 259.3671875 C-40.56335747 258.17247144 -39.62624263 256.97328831 -38.69506836 255.76953125 C-36.29826925 252.67134749 -33.82526765 249.72908656 -31.14453125 246.875 C-28.68591395 244.23866758 -28.68591395 244.23866758 -28.76953125 241.5625 C-29.43816981 240.00234337 -30.12252487 238.44853848 -30.83984375 236.91015625 C-31.18789062 236.15605469 -31.5359375 235.40195312 -31.89453125 234.625 C-32.2503125 233.85671875 -32.60609375 233.0884375 -32.97265625 232.296875 C-34.32515055 228.83540653 -34.62582792 225.63217073 -34.89453125 221.9375 C-39.65602531 219.7489872 -44.60226421 218.84030544 -49.70703125 217.8125 C-50.59068359 217.63074219 -51.47433594 217.44898438 -52.38476562 217.26171875 C-54.55387656 216.81617164 -56.72376548 216.37490023 -58.89453125 215.9375 Z M26.10546875 228.9375 C24.12546875 232.8975 22.14546875 236.8575 20.10546875 240.9375 C15.98061134 246.03929732 9.73340282 250.82503757 3.10546875 251.9375 C0.67009319 252.05690838 -1.76876088 252.11274739 -4.20703125 252.125 C-5.48191406 252.13917969 -6.75679687 252.15335938 -8.0703125 252.16796875 C-12.06028509 251.92751075 -15.11991694 251.1729171 -18.89453125 249.9375 C-22.24096091 253.99047387 -25.58287111 258.04706932 -28.91796875 262.109375 C-31.48902104 265.23902276 -34.07780442 268.35235842 -36.68359375 271.453125 C-37.85818674 272.86448861 -39.03267043 274.2759432 -40.20703125 275.6875 C-40.76350342 276.34169922 -41.31997559 276.99589844 -41.89331055 277.66992188 C-42.40547119 278.28931641 -42.91763184 278.90871094 -43.4453125 279.546875 C-43.89559814 280.08280273 -44.34588379 280.61873047 -44.80981445 281.17089844 C-46.27144844 283.3229163 -46.27144844 283.3229163 -46.89453125 287.9375 C-45.90453125 291.2375 -44.91453125 294.5375 -43.89453125 297.9375 C-24.42453125 301.8975 -4.95453125 305.8575 15.10546875 309.9375 C21.30546875 303.3375 21.30546875 303.3375 21.10546875 299.9375 C21.67265625 299.66035156 22.23984375 299.38320313 22.82421875 299.09765625 C25.90941219 297.5286452 28.8893301 295.78825124 31.88671875 294.05859375 C35.57407024 292.19544256 37.45674594 291.84584821 41.64453125 292.4375 C45.92789715 293.0374964 49.97657732 293.46725791 54.10546875 291.9375 C58.39900623 288.10802092 60.59178143 282.48370557 62.94677734 277.34619141 C64.10663115 274.9350836 65.39529197 272.6743724 66.78125 270.38671875 C67.42912476 269.31164062 67.42912476 269.31164062 68.09008789 268.21484375 C68.91894594 266.84594062 69.75259962 265.47992707 70.59155273 264.1171875 C72.7379832 260.60729577 72.7379832 260.60729577 72.51171875 256.67578125 C71.17740104 255.02641631 69.83156179 253.46120894 68.35546875 251.9375 C62.52206539 245.30343344 59.50223524 237.32618271 57.10546875 228.9375 C46.87546875 228.9375 36.64546875 228.9375 26.10546875 228.9375 Z M122.3203125 260.11328125 C115.15358217 264.17994354 108.65260057 265.39839372 100.48046875 265.1875 C99.27003906 265.17976563 99.27003906 265.17976563 98.03515625 265.171875 C93.30485928 265.11044257 88.77132975 264.71305866 84.10546875 263.9375 C81.22740762 268.79235051 78.36494143 273.65588994 75.51757812 278.52880859 C74.59370111 280.10470254 73.66548199 281.67806093 72.73242188 283.24853516 C71.4493507 285.40912527 70.18215873 287.57832306 68.91796875 289.75 C68.519729 290.41257812 68.12148926 291.07515625 67.71118164 291.7578125 C65.64407371 295.27318693 65.64407371 295.27318693 65.25 299.23828125 C66.51450202 301.74996335 68.33918808 303.75562387 70.10546875 305.9375 C73.61267085 312.17252596 74.23438191 317.14379215 74.16796875 324.25 C74.15894531 325.50425781 74.14992188 326.75851562 74.140625 328.05078125 C74.12902344 329.00339844 74.11742187 329.95601563 74.10546875 330.9375 C78.86409069 333.41560063 83.6327941 335.87259381 88.41210938 338.31054688 C90.03680673 339.14302569 91.65858724 339.98122266 93.27734375 340.82519531 C95.60325931 342.03660967 97.93885219 343.22714613 100.27734375 344.4140625 C101.0004071 344.79623932 101.72347046 345.17841614 102.46844482 345.57217407 C106.29457103 347.60938327 106.29457103 347.60938327 110.43847656 347.25537109 C110.98858398 346.82047363 111.53869141 346.38557617 112.10546875 345.9375 C117.37150777 342.64622561 120.25988568 341.81189737 126.41796875 342.5 C130.55669025 342.50056981 130.55669025 342.50056981 133.95703125 340.3828125 C135.86964244 337.65993253 137.47214901 334.83787991 139.10546875 331.9375 C140.52281275 329.66186085 141.96660582 327.40424173 143.41186523 325.14624023 C144.98310193 322.68337256 146.52969888 320.20625138 148.07421875 317.7265625 C149.97236465 314.69655027 151.91815189 311.71591709 153.94921875 308.7734375 C154.3786377 308.14211914 154.80805664 307.51080078 155.25048828 306.86035156 C156.40576297 305.17169678 157.57923427 303.49553199 158.75390625 301.8203125 C160.42420781 299.04357844 160.42420781 299.04357844 159.45703125 296.3046875 C158.65042167 294.89195511 157.82372609 293.48996999 156.95703125 292.11328125 C155.89905684 289.41010811 156.13182114 287.11187206 156.33984375 284.25292969 C156.82829055 277.78613317 156.82829055 277.78613317 154.89453125 271.75390625 C152.75692225 269.88233156 150.50975409 268.4575647 148.10546875 266.9375 C146.75561905 265.92425317 145.41527001 264.89828742 144.08203125 263.86328125 C141.240284 261.66400484 138.39757873 259.46807629 135.51953125 257.31640625 C134.91061035 256.8582251 134.30168945 256.40004395 133.67431641 255.92797852 C129.52973418 253.31133206 125.74675913 257.76835293 122.3203125 260.11328125 Z M-48.70703125 311.8125 C-50.05713837 313.8227657 -50.05713837 313.8227657 -49.89453125 315.9375 C-51.89453125 316.9375 -53.89453125 317.9375 -55.89453125 318.9375 C-55.33497836 327.55383196 -54.16940604 335.94268643 -52.64453125 344.4375 C-52.31727051 346.29556274 -52.31727051 346.29556274 -51.98339844 348.19116211 C-51.40903463 351.4452741 -50.82989615 354.69848746 -50.24853516 357.95135498 C-49.7743132 360.61198543 -49.30524678 363.27351323 -48.83636475 365.93508911 C-48.27440002 369.12374377 -47.70954544 372.31188447 -47.14453125 375.5 C-46.9340918 376.68851562 -46.72365234 377.87703125 -46.50683594 379.1015625 C-46.30993164 380.20371094 -46.11302734 381.30585938 -45.91015625 382.44140625 C-45.73774414 383.40892822 -45.56533203 384.3764502 -45.38769531 385.37329102 C-44.96184688 387.58749202 -44.46891783 389.7578507 -43.89453125 391.9375 C-40.86912768 393.20155476 -38.18865013 393.94663422 -34.89453125 393.9375 C-31.45726974 392.08031319 -29.03108868 389.38068889 -26.38671875 386.5390625 C-25.61699738 385.75614838 -24.847276 384.97323425 -24.05422974 384.16659546 C-21.59905476 381.65654475 -19.18493617 379.11078348 -16.76953125 376.5625 C-15.13792963 374.88427194 -13.50383825 373.20846064 -11.8671875 371.53515625 C-5.55535688 365.05039877 0.67680443 358.52891734 6.58360291 351.67062378 C8.80060991 349.14586276 11.15065006 346.7970472 13.54296875 344.4375 C14.40792969 343.5815625 15.27289063 342.725625 16.1640625 341.84375 C16.80472656 341.2146875 17.44539063 340.585625 18.10546875 339.9375 C17.80898437 339.25300781 17.5125 338.56851562 17.20703125 337.86328125 C15.26709982 332.71076835 14.29764785 327.30230597 13.10546875 321.9375 C1.96924392 319.04163333 -9.21572053 316.51858888 -20.48950195 314.21777344 C-23.11866386 313.6800072 -25.74584707 313.13319991 -28.37304688 312.5859375 C-30.06108688 312.2390426 -31.74923403 311.89266853 -33.4375 311.546875 C-34.21457809 311.38443298 -34.99165619 311.22199097 -35.7922821 311.05462646 C-42.77942874 309.16289637 -42.77942874 309.16289637 -48.70703125 311.8125 Z " fill="#000000" transform="translate(194.89453125,38.0625)"/>
<path d="M0 0 C7.82593689 5.48933573 13.35470111 12.12158917 15.60546875 21.53125 C17.18632896 31.42336535 14.97673058 39.84109558 9.44140625 48.15234375 C4.58932966 54.37194328 -1.93763103 58.44234801 -9.4375 60.75 C-21.09865088 61.88767326 -29.75329667 59.37212799 -39 52 C-44.54541958 46.793232 -48.50903551 39.38172612 -49.203125 31.7734375 C-49.42469735 20.43631895 -46.13804223 12.49910353 -38.40625 4.3125 C-27.72656128 -5.76267803 -12.75686488 -6.91929367 0 0 Z " fill="#F4BC4F" transform="translate(312,232)"/>
<path d="M0 0 C6.58596927 3.9534161 11.84754743 10.22199725 13.8046875 17.68359375 C14.80329917 26.96614313 13.93354788 33.8403365 8.8046875 41.68359375 C8.2684375 42.59109375 7.7321875 43.49859375 7.1796875 44.43359375 C1.20538104 50.09346303 -4.98405371 53.06498253 -13.2578125 53.30859375 C-22.39717519 52.85862513 -29.49104863 50.46646395 -35.7265625 43.61328125 C-39.08905976 39.19553219 -41.66411657 34.26115104 -42.1953125 28.68359375 C-42.28167969 27.98878906 -42.36804688 27.29398438 -42.45703125 26.578125 C-43.05424526 18.23040028 -39.90434635 11.09911024 -34.5546875 4.73046875 C-24.37930369 -4.6841387 -12.37918464 -5.6751327 0 0 Z " fill="#EE7979" transform="translate(210.1953125,138.31640625)"/>
<path d="M0 0 C2.60137715 1.85378512 4.6112988 3.7409913 6.671875 6.19140625 C7.13851562 6.69800781 7.60515625 7.20460937 8.0859375 7.7265625 C12.47551324 13.30549256 12.51557015 19.58824849 12.15234375 26.40234375 C11.20005047 33.9122989 7.29784592 38.35967428 1.47265625 42.9375 C-5.09659737 47.51175252 -11.53362186 48.13462405 -19.328125 47.19140625 C-25.24352672 45.29419682 -30.63607726 41.6946092 -34.12890625 36.52734375 C-37.96260313 29.01844908 -40.12277576 23.05013386 -37.58984375 14.78125 C-34.38988929 6.89329642 -29.97944701 1.94750978 -22.328125 -1.80859375 C-15.01417354 -4.11826263 -6.64099099 -3.937943 0 0 Z " fill="#7CC3C2" transform="translate(325.328125,127.80859375)"/>
<path d="M0 0 C6.52183035 2.29471809 10.89343854 6.90128303 14 13 C14.86816239 19.32396721 14.89317436 25.72537667 11 31 C6.12527707 35.9830501 1.77005771 38.98757804 -5.3125 39.375 C-11.46336213 39.22122845 -16.04558957 37.00723233 -20.3125 32.625 C-24.18080214 26.60764112 -26.05836136 22.16522809 -25 15 C-23.0423584 8.24059597 -18.82742396 4.64529335 -13 1 C-9.07009274 -0.96495363 -4.29346679 -0.33447687 0 0 Z " fill="#F2BB4E" transform="translate(113,222)"/>
<path d="M0 0 C5.28394267 2.94844001 8.91543295 7.80879886 10.8125 13.5 C11.59745136 20.02410395 10.59101395 25.08454026 6.8125 30.5 C2.48279484 34.71576555 -2.34075983 37.60095101 -8.4375 38.0625 C-14.89728955 37.82203406 -20.18530997 34.46360147 -24.70703125 30 C-28.47906764 24.6684998 -28.06776603 17.70013465 -27.1875 11.5 C-25.06381218 5.77056137 -21.5515565 2.4152481 -16.1875 -0.5 C-10.73620476 -2.31709841 -5.3120455 -2.31891217 0 0 Z " fill="#7BC2C1" transform="translate(199.1875,242.5)"/>
<path d="M0 0 C4.82184918 2.95507067 8.79588108 6.33105086 10.37109375 11.890625 C11.36360937 18.17948501 11.19784929 23.38422056 7.80859375 28.890625 C3.9870709 33.77614494 0.75510591 36.35655604 -5.42578125 37.33203125 C-11.98612406 37.72332073 -16.55800368 36.78158181 -21.78125 32.71484375 C-26.35308321 28.2010042 -27.83908007 23.75892062 -28.19140625 17.390625 C-27.90942436 10.82317592 -25.65502692 6.75600485 -20.9375 2.2890625 C-14.77758341 -2.3148 -7.0689218 -2.98302198 0 0 Z " fill="#ED7979" transform="translate(247.62890625,342.109375)"/>
<path d="M0 0 C3.83378636 1.81233537 5.53351018 3.30026527 7.875 6.8125 C9.37965797 11.07569758 9.93170493 14.57055435 8.2734375 18.89453125 C6.20124164 22.89572245 4.21721705 25.40682911 0 27 C-4.7109658 27.69792086 -8.05386757 27.45554524 -12.375 25.375 C-16.36967893 21.76076668 -18.1206612 18.35559774 -18.4375 13 C-18.2674846 8.76580697 -16.72839737 6.25891908 -14 3 C-9.64690293 -0.89000163 -5.60592788 -0.78819523 0 0 Z " fill="#F2BB4E" transform="translate(398,205)"/>
<path d="M0 0 C3.57512324 2.80212362 5.07942757 5.24758513 5.75 9.75 C5.10441855 14.26907016 3.1484142 17.4197375 -0.5 20.1875 C-3.79725883 21.12957395 -6.2687599 21.22510656 -9.6875 20.8125 C-13.16315519 18.79537868 -15.39203512 16.69889464 -16.6875 12.8125 C-17.06685127 8.71550628 -17.13678789 6.53456983 -14.9375 3 C-10.40585117 -1.40576969 -6.00973294 -2.65546339 0 0 Z " fill="#79BFBE" transform="translate(154.6875,442.1875)"/>
<path d="M0 0 C3.0220794 1.74450506 5.41651082 3.83302164 7 7 C7.5811138 14.08958838 7.5811138 14.08958838 5.125 17.9375 C1.45918164 21.49550017 -1.56861428 21.40742609 -6.515625 21.3359375 C-9 21 -9 21 -12.0625 19 C-14.44889613 15.30493503 -15.45699317 12.40610397 -15 8 C-11.58561479 1.41511424 -7.49117976 -1.42756445 0 0 Z " fill="#7AC0BF" transform="translate(376,310)"/>
<path d="M0 0 C3.5386994 1.65139305 4.81070153 2.71605229 7 6 C7.54602034 9.39107371 7.54627924 12.60874176 7 16 C4.80977082 18.82424288 3.16982793 20.41508603 0 22 C-3.25090692 22.37510464 -5.84388451 22.66540869 -8.7578125 20.98828125 C-12.67796097 17.83511835 -13.8139011 15.64387361 -14.375 10.6875 C-13.87765929 5.79698299 -12.42915508 4.42915508 -9 1 C-5.93570224 -0.53214888 -3.3834358 -0.22938548 0 0 Z " fill="#7AC0BF" transform="translate(55,306)"/>
<path d="M0 0 C2.87029869 1.79393668 4.49131638 2.98263276 6 6 C6.55512815 10.63213493 6.6364242 13.98172127 4.125 18 C0.59185943 21.32530877 -2.04661263 21.33074386 -6.73828125 21.29296875 C-10.0542278 20.86344199 -11.74987627 19.39075646 -14 17 C-15.72869779 13.54260443 -15.48966895 9.78024432 -15 6 C-11.10231905 -0.23628951 -6.98983895 -0.90541955 0 0 Z " fill="#EB7777" transform="translate(491,210)"/>
<path d="M0 0 C2.70567626 1.82339052 4.53728718 3.07457436 6 6 C6.35032356 11.34243433 6.4561069 14.64786539 3 19 C-1.00254616 21.66836411 -4.29313299 21.8340238 -9 21 C-11.75569447 18.81840855 -13.43588747 17.12822506 -15 14 C-15.57791538 6.9494324 -15.57791538 6.9494324 -13.25 3.125 C-8.74530102 -1.12943792 -6.14169234 -1.50848584 0 0 Z " fill="#F0BA4E" transform="translate(319,49)"/>
<path d="M0 0 C3.52321907 0.86318867 5.20098615 2.74024075 7.34375 5.57421875 C7.67375 5.90421875 8.00375 6.23421875 8.34375 6.57421875 C8.72645052 11.54932555 8.51463582 14.6379467 5.34375 18.57421875 C2.41479403 20.9336555 0.59693497 21.54257063 -3.15625 22.01171875 C-7.27272408 21.49715949 -8.79086399 20.52147293 -11.65625 17.57421875 C-13.95024862 14.29707786 -14.27342397 11.50870278 -13.65625 7.57421875 C-10.52520407 1.44772337 -6.79515311 -0.46051489 0 0 Z " fill="#F0BA4D" transform="translate(187.65625,48.42578125)"/>
<path d="M0 0 C3.0625 1.9375 3.0625 1.9375 5 5 C5.99791452 10.02256153 5.82077829 13.70264076 3.0625 18.0625 C-0.92398928 20.58456465 -4.27838867 21.58916416 -9 21 C-12.12656275 19.34246674 -14.39678118 17.20643764 -16 14 C-16.68128376 7.18716238 -16.68128376 7.18716238 -14.953125 4.17578125 C-10.310258 -1.46393661 -6.8104909 -1.65565382 0 0 Z " fill="#EB7878" transform="translate(86,113)"/>
<path d="M0 0 C3 1.9375 3 1.9375 5 5 C6.00531529 10.01833616 5.81808816 13.70689292 3.0625 18.0625 C-0.92398928 20.58456465 -4.27838867 21.58916416 -9 21 C-12.12656275 19.34246674 -14.39678118 17.20643764 -16 14 C-16.57791538 6.9494324 -16.57791538 6.9494324 -14.25 3.125 C-9.72267517 -1.15080678 -6.08606792 -1.80774295 0 0 Z " fill="#F1BA4E" transform="translate(134,327)"/>
<path d="M0 0 C3.71168084 0.96768822 5.55692692 2.80821076 8.1875 5.5703125 C9.95984774 9.11500799 9.21056495 12.83837748 8.1875 16.5703125 C5.50896137 19.85152232 4.05174925 21.17387285 -0.03515625 22.04296875 C-4.15996394 22.31152885 -6.29392842 21.90522331 -9.8125 19.6328125 C-12.43808352 15.61238773 -13.47497826 12.37123519 -12.8125 7.5703125 C-10.16271564 1.74930027 -6.31735453 -0.49087552 0 0 Z " fill="#7BC1C0" transform="translate(417.8125,112.4296875)"/>
<path d="M0 0 C3.4001699 2.06966864 5.91812696 4.10525706 7 8 C7 13.12297197 6.80584262 15.03298885 3.5 19 C0.18821582 21.34617964 -2.87837144 21.73576056 -6.87890625 21.47265625 C-10.58826263 20.64607776 -11.95175535 19.13637463 -14 16 C-15.01062385 12.91135183 -15.40353827 10.23398982 -15 7 C-11.6366287 0.65575844 -6.89484347 -0.96607212 0 0 Z " fill="#F2BB4E" transform="translate(325,391)"/>
<path d="M0 0 C3.02508145 1.73602105 5.41790069 3.83580137 7 7 C7.22455057 11.96940167 6.68307821 15.1632292 3.5 19.0625 C0.19295563 21.34954032 -2.91543283 21.73332314 -6.87890625 21.47265625 C-10.58826263 20.64607776 -11.95175535 19.13637463 -14 16 C-15.01062385 12.91135183 -15.40353827 10.23398982 -15 7 C-11.69021659 0.75683993 -6.83956798 -1.16742162 0 0 Z " fill="#F2BB4E" transform="translate(29,212)"/>
<path d="M0 0 C3.86134614 0.04843983 6.16579789 0.80078068 9.25 3.25 C11.9290573 7.26858595 11.94610694 10.52641721 11.25 15.25 C9.45606332 18.12029869 8.26736724 19.74131638 5.25 21.25 C2.19079426 21.67071592 -0.6967746 21.73514117 -3.75 21.25 C-6.50569447 19.06840855 -8.18588747 17.37822506 -9.75 14.25 C-10.25698467 9.09565588 -10.25698467 9.09565588 -9.75 6.25 C-7.3125 3.3125 -7.3125 3.3125 -4.75 1.25 C-3.75 0.25 -3.75 0.25 0 0 Z " fill="#F2BB4E" transform="translate(462.75,300.75)"/>
</svg>
