<svg version="1.1" id="Layer_1" xmlns="http://www.w3.org/2000/svg" xmlns:xlink="http://www.w3.org/1999/xlink" x="0px" y="0px"
	 width="100%" viewBox="0 0 512 512" enable-background="new 0 0 512 512" xml:space="preserve">
<path fill="#010101" opacity="1.000000" stroke="none" 
	d="
M513.000000,192.000000 
	C513.000000,299.307251 513.000000,406.114502 513.000000,512.960876 
	C342.401062,512.960876 171.802139,512.960876 1.101599,512.960876 
	C1.101599,342.442780 1.101599,171.885468 1.101599,1.164083 
	C171.666534,1.164083 342.333252,1.164083 513.000000,1.164083 
	C513.000000,64.531158 513.000000,128.015579 513.000000,192.000000 
M178.957047,264.944000 
	C183.556473,264.944000 188.155899,264.944000 192.655914,264.944000 
	C192.655914,278.300507 192.896423,290.949951 192.603134,303.587006 
	C192.080276,326.115967 184.095016,345.728790 167.201569,360.764923 
	C161.531464,365.811676 161.471802,369.573486 163.511230,376.170624 
	C165.768295,383.471832 169.535019,386.682312 176.615189,389.402344 
	C188.422943,393.938690 199.398697,400.640686 211.954330,407.059479 
	C215.126862,401.932068 219.231369,395.756897 222.758789,389.268005 
	C223.617706,387.687988 223.252258,384.706726 222.310333,382.997772 
	C213.353287,366.746674 208.954163,349.401703 208.992935,330.874176 
	C209.028854,313.708221 209.180084,296.539459 208.939499,279.376678 
	C208.511932,248.873581 185.171768,221.831635 154.926163,218.083328 
	C141.451294,216.413376 127.661842,217.045105 114.015152,217.044159 
	C77.290436,217.041611 49.113960,245.214508 49.006439,281.841187 
	C48.960449,297.507172 48.869152,313.174774 49.031128,328.839233 
	C49.231667,348.233154 44.997616,366.446442 35.386105,383.366486 
	C34.711605,384.553833 34.015076,386.345093 34.430363,387.436310 
	C37.398438,395.235413 41.746853,402.162506 46.944138,406.927399 
	C57.665657,401.150024 67.050110,393.914124 77.628792,390.971588 
	C89.526863,387.662018 94.061340,380.641174 96.333488,369.977570 
	C96.859352,367.509552 96.831131,366.211426 94.802460,364.542450 
	C65.267174,340.244263 61.498764,307.537201 66.352684,272.845184 
	C68.498367,257.509491 85.442207,247.811768 97.162178,249.640625 
	C97.162178,252.050308 97.162178,254.527374 97.014175,257.886658 
	C97.014175,260.192139 97.014175,262.497620 97.014175,264.722778 
	C85.708260,266.791168 81.019882,272.313263 81.000053,283.201630 
	C80.988228,289.699493 80.860168,296.201172 81.031784,302.694611 
	C81.563446,322.811218 89.545265,339.443115 105.011040,352.298462 
	C118.689323,363.667999 137.441299,364.138824 151.610107,353.298126 
	C165.913147,342.354767 174.553772,327.776184 175.983551,309.761353 
	C177.035858,296.502289 176.662689,283.131805 177.019379,269.813538 
	C177.064453,268.130157 177.685318,266.462219 178.957047,264.944000 
M146.125870,440.972382 
	C135.130997,440.980835 124.134895,441.096771 113.141579,440.970398 
	C99.485184,440.813416 89.244202,430.504425 89.013451,416.859009 
	C88.941437,412.600433 89.002235,408.339569 89.002235,403.957611 
	C53.140667,413.342926 24.074440,452.025238 25.590733,488.672729 
	C35.983269,488.672729 46.373428,488.672729 57.238102,488.672729 
	C57.238102,477.952423 57.238102,467.552643 57.238102,457.218262 
	C62.664215,457.218262 67.607651,457.218262 73.024605,457.218262 
	C73.024605,467.824371 73.024605,478.222565 73.024605,488.725922 
	C110.554779,488.725922 147.603210,488.725922 185.131836,488.725922 
	C185.131836,478.062195 185.131836,467.662506 185.131836,457.342102 
	C190.679276,457.342102 195.740768,457.342102 201.271210,457.342102 
	C201.271210,468.078583 201.271210,478.477905 201.271210,488.739380 
	C212.030579,488.739380 222.306717,488.739380 232.574539,488.739380 
	C232.957245,445.471069 198.720459,410.818573 170.155289,404.413391 
	C168.906830,412.154175 168.704666,420.318573 166.113586,427.637207 
	C163.197845,435.872925 155.750961,439.857330 146.125870,440.972382 
M486.985046,471.647156 
	C480.860992,445.137268 466.054565,425.062408 442.471832,411.010956 
	C438.023621,422.024841 433.760040,432.581543 429.411255,443.349213 
	C415.924377,437.975891 402.924042,432.935638 390.056000,427.577667 
	C386.578278,426.129608 383.702454,425.980896 380.147888,427.473175 
	C367.152771,432.928955 353.999878,438.009003 340.589722,443.356873 
	C336.194153,432.472687 331.935150,421.926544 327.665985,411.355408 
	C300.930481,425.007172 280.365875,458.316040 281.557953,488.697571 
	C291.947754,488.697571 302.338776,488.697571 313.192688,488.697571 
	C313.192688,478.001343 313.192688,467.599945 313.192688,457.360718 
	C318.730621,457.360718 323.796448,457.360718 329.310181,457.360718 
	C329.310181,468.116638 329.310181,478.515472 329.310181,488.773682 
	C366.711029,488.773682 403.642975,488.773682 441.040680,488.773682 
	C441.040680,478.157623 441.040680,467.758484 441.040680,457.284393 
	C446.572876,457.284393 451.633606,457.284393 457.157288,457.284393 
	C457.157288,467.961304 457.157288,478.362183 457.157288,488.661377 
	C468.032959,488.661377 478.438080,488.661377 489.378296,488.661377 
	C488.576385,483.000549 487.831818,477.744598 486.985046,471.647156 
M360.262726,251.246872 
	C359.449890,249.783844 358.637085,248.320801 358.122131,247.393921 
	C351.147156,250.866760 345.783936,253.521744 340.434418,256.204010 
	C330.904755,260.982239 328.286011,265.915741 329.235748,276.679413 
	C330.582520,291.941956 331.891449,307.208679 333.071442,322.484833 
	C334.627319,342.627014 348.532806,358.374023 368.345367,360.519012 
	C379.211182,361.695343 390.382812,361.600464 401.279022,360.592255 
	C419.394135,358.916046 433.789612,345.135742 436.067200,327.279755 
	C438.319794,309.619812 439.457367,291.812988 440.878235,274.054138 
	C441.354034,268.107300 438.254883,265.051666 432.275269,265.019012 
	C420.278320,264.953522 408.278809,264.863525 396.283997,265.035004 
	C382.664215,265.229706 370.805237,260.992737 360.262726,251.246872 
M283.431183,285.058441 
	C284.081055,283.575012 284.730927,282.091614 285.483429,280.373962 
	C275.864197,273.160828 266.459167,266.108337 257.002045,259.016785 
	C246.845230,266.625519 236.950943,273.935242 227.221420,281.458038 
	C226.029327,282.379761 225.106308,284.438171 225.095093,285.977356 
	C224.972519,302.790222 224.772675,319.611359 225.175674,336.416290 
	C225.486816,349.391296 229.268021,361.595734 235.235184,373.143036 
	C236.684341,375.947388 238.307693,377.209320 241.703995,377.102783 
	C251.183868,376.805389 260.679169,376.999359 270.168365,376.999359 
	C296.630371,376.999359 323.092377,376.999359 349.842712,376.999359 
	C350.305939,375.384460 350.731567,373.900665 351.155579,372.422424 
	C341.916626,368.137848 333.927155,362.733612 328.811981,354.567017 
	C323.889557,346.708191 320.343292,337.987396 315.976044,329.210541 
	C288.927307,330.602112 275.353943,304.663391 283.431183,285.058441 
M436.851288,249.189484 
	C444.910614,250.692902 450.861115,255.012756 454.619843,262.352234 
	C455.109314,263.307953 455.913422,264.607635 456.770752,264.784729 
	C461.092682,265.677429 465.480560,266.250824 469.786133,266.926971 
	C479.816589,242.255371 466.264282,213.214050 440.295471,203.959564 
	C405.667419,191.619171 369.925995,185.316025 333.147797,185.022537 
	C316.879028,184.892715 308.622498,197.952194 315.740906,212.531464 
	C318.194153,217.555908 320.681366,222.563782 323.235779,227.747131 
	C316.702179,232.124817 310.538757,236.070007 304.575134,240.297104 
	C297.160522,245.552628 294.799713,254.818329 299.041168,262.361969 
	C300.010437,264.085968 302.911255,266.597168 303.727448,266.212067 
	C307.400208,264.479065 313.066589,267.661102 314.963715,261.332336 
	C317.479004,252.941330 323.196533,247.011612 330.977234,243.070129 
	C335.432068,240.813461 339.824066,238.405579 344.398651,236.421600 
	C347.718262,234.981918 348.898773,233.298203 347.608246,229.597275 
	C346.434204,226.230515 346.138184,222.557571 345.365295,218.554260 
	C350.762817,217.501892 355.560394,216.566483 360.571106,215.589523 
	C361.145020,217.808624 361.635468,219.377197 361.952240,220.980103 
	C365.509857,238.981903 377.609528,248.955109 395.991608,248.998947 
	C409.317078,249.030746 422.642578,249.057632 436.851288,249.189484 
M151.241425,132.841507 
	C151.798630,126.707985 152.473846,120.582352 152.884033,114.439011 
	C153.434052,106.201256 150.380386,101.249870 142.792389,97.941551 
	C131.376343,92.964249 119.968903,87.958786 108.431992,83.275215 
	C106.426147,82.460915 103.521706,82.486031 101.505966,83.298538 
	C90.419708,87.767235 79.473633,92.584808 68.493332,97.314911 
	C59.109474,101.357292 56.328831,106.211685 57.220753,116.489960 
	C58.559036,131.911942 59.844086,147.338684 61.099873,162.767624 
	C62.555283,180.649200 73.913506,195.230881 90.750397,199.396622 
	C96.936241,200.927078 103.613632,200.986115 110.052971,200.879608 
	C128.943039,200.567123 145.357330,186.327164 148.062531,167.561172 
	C149.674423,156.379364 150.167587,145.036316 151.241425,132.841507 
M380.693024,41.001591 
	C384.644318,41.001591 388.595581,41.001591 392.999451,41.001591 
	C392.999451,49.171135 393.242004,56.806530 392.900177,64.415680 
	C392.721283,68.397629 394.196716,70.787178 397.233948,73.130661 
	C411.816895,84.382530 428.276611,89.315033 446.606323,89.060043 
	C464.723328,88.808006 474.644928,100.153702 472.695221,118.137238 
	C471.977356,124.758667 471.717804,131.431549 470.936218,138.043976 
	C468.655121,157.341843 470.967133,177.688034 457.568939,194.594025 
	C471.113586,203.079971 480.230743,214.572098 485.922272,229.926514 
	C490.361115,220.511307 489.573181,212.385239 485.735107,204.404495 
	C482.271118,197.201614 481.667389,189.864410 485.290558,182.744766 
	C490.067871,173.357147 489.960052,164.373428 485.198761,155.027740 
	C481.933167,148.617935 481.906403,141.710022 485.094696,135.230255 
	C488.132324,129.056656 489.279327,122.704895 489.048859,115.900780 
	C488.823334,109.241913 489.056580,102.568901 488.979370,95.903366 
	C488.599396,63.102715 465.384369,34.107891 433.384338,27.000889 
	C418.099365,23.606195 402.517365,23.850655 387.189240,26.481817 
	C371.125214,29.239311 357.755890,37.351192 346.672546,49.936554 
	C355.066467,58.484711 359.286804,68.771896 360.986084,81.000938 
	C366.353638,76.968811 371.095490,73.615807 375.541595,69.908104 
	C376.553192,69.064507 376.906708,67.000687 376.937561,65.485756 
	C377.080139,58.488918 376.874542,51.483009 377.125549,44.492268 
	C377.168335,43.300594 378.827271,42.166958 380.693024,41.001591 
M47.982922,92.624474 
	C52.538548,89.374168 56.757343,85.430901 61.720291,83.018600 
	C71.883682,78.078568 82.778404,74.587570 92.744598,69.314201 
	C101.419312,64.724182 108.826157,65.063782 117.448349,69.421394 
	C129.090775,75.305428 141.390457,79.888969 153.784241,85.191460 
	C156.116623,74.367882 164.137421,68.877556 172.592453,63.687283 
	C169.382812,57.133896 167.568329,50.692905 170.167160,44.068375 
	C171.373535,40.993252 170.165024,39.468098 168.176071,37.728008 
	C159.477936,30.118216 149.366699,25.422581 137.855133,25.209528 
	C116.038666,24.805754 94.168098,24.230021 72.395248,25.282440 
	C38.937317,26.899679 14.373839,60.114082 29.461308,98.631660 
	C33.274666,98.084663 37.043350,97.089005 40.797470,97.141167 
	C44.153706,97.187798 46.128719,95.980148 47.982922,92.624474 
M454.002441,148.532013 
	C454.861298,138.416183 455.589050,128.287064 456.614624,118.188164 
	C457.712982,107.372620 455.737366,104.921944 444.936218,105.016586 
	C422.982971,105.208931 403.422852,98.556717 386.277405,84.825310 
	C385.675262,84.343056 384.969086,83.990700 384.286011,83.561867 
	C379.929932,86.812508 375.885406,90.013489 371.656006,92.948044 
	C363.288574,98.753769 360.066772,106.647682 361.207031,116.672943 
	C362.053040,124.110947 362.468597,131.597137 363.131927,139.056870 
	C364.070770,149.615387 365.061249,160.169281 366.032410,170.755447 
	C371.928894,171.528366 377.116852,172.208420 382.706757,172.941147 
	C380.963806,169.980072 379.470886,167.443756 377.820221,164.639481 
	C382.692963,162.199631 387.231689,159.927048 391.699371,157.690033 
	C403.128052,173.006180 413.904694,172.987488 426.441254,157.731003 
	C430.897247,159.969025 435.414703,162.237915 441.370605,165.229263 
	C435.511963,171.357178 430.278015,176.831696 425.120514,182.226257 
	C427.149780,182.853271 429.840240,183.670059 432.521606,184.515656 
	C443.843903,188.086227 444.567474,187.785706 449.401642,176.853531 
	C450.338013,174.736023 451.364471,172.537964 451.671051,170.284790 
	C452.612427,163.366806 453.224274,156.404022 454.002441,148.532013 
M319.259735,90.251648 
	C321.403229,92.478447 323.194794,95.933640 325.765228,96.670029 
	C330.738495,98.094765 336.150635,97.987717 341.435425,98.521057 
	C350.105499,82.491165 342.701538,61.775745 324.953644,54.088245 
	C304.804230,45.360527 284.474304,37.043114 264.137634,28.756449 
	C251.566025,23.633831 238.786850,23.620602 226.199677,28.774437 
	C214.192245,33.690899 202.275620,38.833889 190.382080,44.021774 
	C184.132721,46.747711 183.244736,51.698612 188.050125,56.626537 
	C191.044205,59.696960 194.290726,62.521217 197.785172,65.794296 
	C195.644684,67.351334 194.368744,68.342438 193.031067,69.241737 
	C186.814041,73.421333 180.524185,77.495094 174.369064,81.763474 
	C169.162201,85.374283 167.646210,91.006927 170.201843,96.161507 
	C171.264862,98.305611 172.442947,99.448982 175.272369,98.663773 
	C178.753555,97.697685 182.503250,97.734161 186.038345,96.913017 
	C187.902298,96.480057 190.062134,95.558144 191.217834,94.145027 
	C196.132980,88.135178 202.106873,84.023499 209.637741,81.987106 
	C212.949020,81.091713 216.245148,79.843567 219.262283,78.223267 
	C224.388931,75.470070 229.153763,72.030228 234.329636,69.385864 
	C238.161057,67.428375 238.624603,65.355614 236.966919,61.518433 
	C234.213654,55.145226 232.823730,48.385895 233.189011,41.286720 
	C238.708405,41.286720 243.636002,41.286720 248.733231,41.286720 
	C248.884094,42.683174 248.975525,43.820248 249.133484,44.948002 
	C251.760757,63.703976 261.828735,76.395752 279.951508,82.292763 
	C282.168243,83.014061 284.946198,83.095085 287.187683,82.474525 
	C299.098572,79.177010 309.553040,81.545876 319.259735,90.251648 
M230.292068,142.027527 
	C221.582657,146.146927 212.742874,145.709564 203.507782,142.099274 
	C204.164871,150.258118 204.395584,157.763626 205.434967,165.155426 
	C208.515289,187.061768 224.766037,200.933640 246.998230,200.998795 
	C254.495697,201.020767 261.995239,201.099976 269.490448,200.963928 
	C286.613922,200.653091 302.416534,189.395905 306.730103,172.904755 
	C309.293427,163.104980 309.596436,152.714020 310.973663,142.143967 
	C288.538055,148.727661 277.519165,143.414658 265.619202,121.136330 
	C259.813416,121.136330 254.007629,121.136330 248.270523,121.136330 
	C242.036209,134.040283 239.785599,136.717880 230.292068,142.027527 
M144.494949,374.659851 
	C133.589554,378.027008 122.649803,377.660980 112.314850,374.492645 
	C104.513161,388.247925 104.348091,402.652588 105.056709,417.165100 
	C105.293465,422.014069 108.481087,424.906281 113.626030,424.962585 
	C123.773270,425.073700 133.923233,425.068451 144.070740,424.972076 
	C149.913895,424.916595 152.891724,421.862122 152.977829,415.965424 
	C153.072525,409.478455 153.981949,402.795013 152.748337,396.550415 
	C151.250259,388.967163 147.882935,381.753143 144.494949,374.659851 
M16.998739,344.500000 
	C16.998739,355.264191 16.998739,366.028381 16.998739,378.435394 
	C19.340876,376.631958 20.983986,375.922546 21.735245,374.675720 
	C23.440201,371.846222 24.819702,368.801147 26.130638,365.757172 
	C31.139677,354.126221 32.658382,341.908203 33.121601,329.305054 
	C34.104141,302.572388 28.860754,275.344788 39.320629,249.339066 
	C24.701778,246.824005 16.498644,255.890778 16.816120,268.628815 
	C17.437788,293.571899 16.998745,318.541412 16.998739,344.500000 
M381.506042,376.997223 
	C376.711273,376.997223 371.916504,376.997223 366.838470,376.997223 
	C365.595795,380.591644 364.183105,384.124603 363.229340,387.777405 
	C362.946991,388.858734 363.565582,390.779846 364.438751,391.462341 
	C371.202911,396.749634 378.130768,401.827545 385.011353,406.972870 
	C391.971619,401.772308 398.671265,396.888855 405.185822,391.769775 
	C406.186371,390.983582 407.030396,388.942932 406.746765,387.773499 
	C405.858307,384.110260 404.395966,380.586212 403.237732,377.244141 
	C402.715485,377.057220 402.562927,376.954742 402.410522,376.954926 
	C395.775055,376.963348 389.139618,376.980835 381.506042,376.997223 
M299.077057,128.901016 
	C300.501984,128.474167 301.985901,128.183899 303.342163,127.598061 
	C311.470642,124.086945 315.204651,114.249084 311.474304,106.326202 
	C307.533142,97.955544 297.776703,94.632668 289.643982,98.891167 
	C283.172546,102.279770 279.726898,109.571281 281.351074,116.440201 
	C283.177551,124.164474 289.416321,128.791107 299.077057,128.901016 
M211.024948,127.825821 
	C217.398529,130.174103 223.172195,129.107239 228.059311,124.424934 
	C232.322495,120.340416 233.922485,115.220375 232.577301,109.418777 
	C230.894119,102.159309 224.388641,97.039787 217.084320,96.999657 
	C209.928940,96.960342 203.660614,101.738441 201.618546,108.788574 
	C199.520813,116.030823 202.799286,123.052834 211.024948,127.825821 
M250.533554,216.994812 
	C246.715393,216.868454 242.890991,216.570587 239.082504,216.709518 
	C237.762863,216.757675 236.093613,217.576157 235.271637,218.596634 
	C233.882401,220.321365 233.040741,222.487137 231.893372,224.606873 
	C239.722061,229.300934 247.232376,233.866653 254.829697,238.282639 
	C255.812439,238.853851 257.567993,239.210632 258.419128,238.719589 
	C266.408813,234.110184 274.279419,229.294449 282.310425,224.462524 
	C280.561279,221.476868 279.070282,218.931854 277.935455,216.994812 
	C268.766571,216.994812 260.144531,216.994812 250.533554,216.994812 
M298.133453,302.984497 
	C302.475342,310.914062 307.511230,313.637909 316.250946,312.481049 
	C315.395905,302.125824 314.538849,291.746765 313.688507,281.448608 
	C304.026184,279.664673 293.680298,291.227478 298.133453,302.984497 
M456.121460,282.876129 
	C455.340179,292.772949 454.558899,302.669769 453.779358,312.544464 
	C463.669342,313.682281 471.345795,308.301147 472.835938,299.569489 
	C474.209320,291.522369 468.846252,283.384247 460.708344,281.494598 
	C459.330933,281.174805 457.729889,281.818024 456.121460,282.876129 
M263.058502,105.006981 
	C269.250183,104.912941 266.625549,98.471725 269.414825,96.657974 
	C261.826416,91.236687 254.463638,85.976570 246.745560,80.462624 
	C243.632324,82.359467 239.846497,84.666100 236.860748,86.485268 
	C241.009445,92.669228 244.925980,98.507133 249.286667,105.007095 
	C252.863708,105.007095 257.504333,105.007095 263.058502,105.006981 
M179.749405,144.066772 
	C182.260574,144.433517 184.771744,144.800262 187.676498,145.224487 
	C186.758301,134.449020 185.918076,124.549088 185.060730,114.650635 
	C185.020203,114.182755 184.827469,113.728065 184.711945,113.291176 
	C176.933121,113.502060 171.051605,118.239563 169.327423,125.597809 
	C167.612808,132.915344 171.106583,139.515533 179.749405,144.066772 
M25.201569,131.917175 
	C28.339079,141.641190 35.115356,146.245865 43.594128,144.267548 
	C42.721302,133.930283 41.846519,123.569855 40.973255,113.227432 
	C30.708811,113.685875 24.882547,120.400246 25.201569,131.917175 
M344.293152,133.454346 
	C346.700378,122.395767 340.216156,113.614838 329.005707,113.276825 
	C328.140991,123.732132 327.274689,134.206665 326.408325,144.682190 
	C335.244568,145.367920 340.378082,142.221725 344.293152,133.454346 
M232.165283,257.654205 
	C235.516983,255.082947 238.868683,252.511688 242.566940,249.674561 
	C236.536453,246.054657 230.919266,243.119934 225.806564,239.477142 
	C221.631760,236.502579 218.423965,236.733261 215.043655,240.871429 
	C219.011642,247.479980 223.084625,254.263397 227.262604,261.221680 
	C228.919235,260.014771 230.254868,259.041748 232.165283,257.654205 
M353.137360,403.065613 
	C349.596497,403.173401 346.055603,403.281158 341.769592,403.411621 
	C344.679413,410.629974 347.020508,416.437439 349.497986,422.583252 
	C355.999329,419.970734 362.069427,417.531494 368.761078,414.842499 
	C363.292236,410.716339 358.520050,407.115753 353.137360,403.065613 
M427.412506,404.682007 
	C424.025238,404.058563 419.850037,401.884277 417.409454,403.124207 
	C411.776794,405.985870 406.985687,410.504059 401.199005,414.840515 
	C408.086792,417.601318 414.166229,420.038116 420.575562,422.607117 
	C422.976135,416.490112 425.152222,410.945129 427.412506,404.682007 
M327.683472,160.993973 
	C322.161377,162.080338 325.846436,166.462280 324.072052,169.279602 
	C332.973236,169.279602 341.178192,169.279602 349.745148,169.279602 
	C349.280487,164.436035 348.836395,159.807159 348.492828,156.225845 
	C341.539978,157.888260 335.055847,159.438583 327.683472,160.993973 
M282.083374,246.205383 
	C282.288330,245.282516 282.493317,244.359634 282.840820,242.794830 
	C278.809570,245.226273 275.339325,247.319336 271.288086,249.762817 
	C274.735962,252.305344 277.555084,254.384201 280.590607,256.622650 
	C281.126160,252.873947 281.547852,249.922409 282.083374,246.205383 
z"/>
<path fill="#FAD56F" opacity="1.000000" stroke="none" 
	d="
M97.162178,257.004425 
	C97.162178,254.527374 97.162178,252.050308 97.162178,249.640625 
	C85.442207,247.811768 68.498367,257.509491 66.352684,272.845184 
	C61.498764,307.537201 65.267174,340.244263 94.802460,364.542450 
	C96.831131,366.211426 96.859352,367.509552 96.333488,369.977570 
	C94.061340,380.641174 89.526863,387.662018 77.628792,390.971588 
	C67.050110,393.914124 57.665657,401.150024 46.944138,406.927399 
	C41.746853,402.162506 37.398438,395.235413 34.430363,387.436310 
	C34.015076,386.345093 34.711605,384.553833 35.386105,383.366486 
	C44.997616,366.446442 49.231667,348.233154 49.031128,328.839233 
	C48.869152,313.174774 48.960449,297.507172 49.006439,281.841187 
	C49.113960,245.214508 77.290436,217.041611 114.015152,217.044159 
	C127.661842,217.045105 141.451294,216.413376 154.926163,218.083328 
	C185.171768,221.831635 208.511932,248.873581 208.939499,279.376678 
	C209.180084,296.539459 209.028854,313.708221 208.992935,330.874176 
	C208.954163,349.401703 213.353287,366.746674 222.310333,382.997772 
	C223.252258,384.706726 223.617706,387.687988 222.758789,389.268005 
	C219.231369,395.756897 215.126862,401.932068 211.954330,407.059479 
	C199.398697,400.640686 188.422943,393.938690 176.615189,389.402344 
	C169.535019,386.682312 165.768295,383.471832 163.511230,376.170624 
	C161.471802,369.573486 161.531464,365.811676 167.201569,360.764923 
	C184.095016,345.728790 192.080276,326.115967 192.603134,303.587006 
	C192.896423,290.949951 192.655914,278.300507 192.655914,264.944000 
	C188.155899,264.944000 183.556473,264.944000 178.307800,264.594055 
	C173.997116,259.914001 169.109863,257.983978 163.453568,256.816406 
	C162.405151,253.375626 161.587830,250.225754 160.748108,246.989563 
	C155.502502,248.317093 150.728180,249.525360 145.601196,250.822876 
	C145.997070,253.022995 146.339813,254.927872 146.173859,256.876587 
	C140.989304,256.978790 136.313477,257.037079 131.424469,256.795959 
	C130.395401,253.349243 129.579529,250.201996 128.742737,246.974136 
	C123.402206,248.364792 118.531036,249.633240 113.541931,250.932388 
	C114.002396,253.300995 114.345169,255.064224 114.179291,256.872559 
	C108.167816,256.946594 102.665001,256.975525 97.162178,257.004425 
z"/>
<path fill="#FE826E" opacity="1.000000" stroke="none" 
	d="
M146.578308,440.950928 
	C155.750961,439.857330 163.197845,435.872925 166.113586,427.637207 
	C168.704666,420.318573 168.906830,412.154175 170.155289,404.413391 
	C198.720459,410.818573 232.957245,445.471069 232.574539,488.739380 
	C222.306717,488.739380 212.030579,488.739380 201.271210,488.739380 
	C201.271210,478.477905 201.271210,468.078583 201.271210,457.342102 
	C195.740768,457.342102 190.679276,457.342102 185.131836,457.342102 
	C185.131836,467.662506 185.131836,478.062195 185.131836,488.725922 
	C147.603210,488.725922 110.554779,488.725922 73.024605,488.725922 
	C73.024605,478.222565 73.024605,467.824371 73.024605,457.218262 
	C67.607651,457.218262 62.664215,457.218262 57.238102,457.218262 
	C57.238102,467.552643 57.238102,477.952423 57.238102,488.672729 
	C46.373428,488.672729 35.983269,488.672729 25.590733,488.672729 
	C24.074440,452.025238 53.140667,413.342926 89.002235,403.957611 
	C89.002235,408.339569 88.941437,412.600433 89.013451,416.859009 
	C89.244202,430.504425 99.485184,440.813416 113.141579,440.970398 
	C124.134895,441.096771 135.130997,440.980835 146.578308,440.950928 
z"/>
<path fill="#74B0F1" opacity="1.000000" stroke="none" 
	d="
M487.036163,472.067902 
	C487.831818,477.744598 488.576385,483.000549 489.378296,488.661377 
	C478.438080,488.661377 468.032959,488.661377 457.157288,488.661377 
	C457.157288,478.362183 457.157288,467.961304 457.157288,457.284393 
	C451.633606,457.284393 446.572876,457.284393 441.040680,457.284393 
	C441.040680,467.758484 441.040680,478.157623 441.040680,488.773682 
	C403.642975,488.773682 366.711029,488.773682 329.310181,488.773682 
	C329.310181,478.515472 329.310181,468.116638 329.310181,457.360718 
	C323.796448,457.360718 318.730621,457.360718 313.192688,457.360718 
	C313.192688,467.599945 313.192688,478.001343 313.192688,488.697571 
	C302.338776,488.697571 291.947754,488.697571 281.557953,488.697571 
	C280.365875,458.316040 300.930481,425.007172 327.665985,411.355408 
	C331.935150,421.926544 336.194153,432.472687 340.589722,443.356873 
	C353.999878,438.009003 367.152771,432.928955 380.147888,427.473175 
	C383.702454,425.980896 386.578278,426.129608 390.056000,427.577667 
	C402.924042,432.935638 415.924377,437.975891 429.411255,443.349213 
	C433.760040,432.581543 438.023621,422.024841 442.471832,411.010956 
	C466.054565,425.062408 480.860992,445.137268 487.036163,472.067902 
z"/>
<path fill="#EFCFB3" opacity="1.000000" stroke="none" 
	d="
M360.516876,251.495026 
	C370.805237,260.992737 382.664215,265.229706 396.283997,265.035004 
	C408.278809,264.863525 420.278320,264.953522 432.275269,265.019012 
	C438.254883,265.051666 441.354034,268.107300 440.878235,274.054138 
	C439.457367,291.812988 438.319794,309.619812 436.067200,327.279755 
	C433.789612,345.135742 419.394135,358.916046 401.279022,360.592255 
	C390.382812,361.600464 379.211182,361.695343 368.345367,360.519012 
	C348.532806,358.374023 334.627319,342.627014 333.071442,322.484833 
	C331.891449,307.208679 330.582520,291.941956 329.235748,276.679413 
	C328.286011,265.915741 330.904755,260.982239 340.434418,256.204010 
	C345.783936,253.521744 351.147156,250.866760 358.122131,247.393921 
	C358.637085,248.320801 359.449890,249.783844 360.516876,251.495026 
M360.999634,334.584656 
	C360.999634,338.005890 360.999634,341.427094 360.999634,344.956909 
	C372.646301,344.956909 383.632324,345.243134 394.597748,344.890503 
	C411.475555,344.347778 425.534302,329.372894 424.629120,313.185089 
	C419.524414,313.185089 414.408600,313.185089 409.321136,313.185089 
	C406.885223,324.768585 401.665314,328.993439 389.910645,328.998688 
	C380.450623,329.002930 370.990601,328.999573 361.208679,328.999573 
	C361.130280,330.730103 361.064941,332.172424 360.999634,334.584656 
z"/>
<path fill="#B3DC7F" opacity="1.000000" stroke="none" 
	d="
M283.280579,285.429382 
	C275.353943,304.663391 288.927307,330.602112 315.976044,329.210541 
	C320.343292,337.987396 323.889557,346.708191 328.811981,354.567017 
	C333.927155,362.733612 341.916626,368.137848 351.155579,372.422424 
	C350.731567,373.900665 350.305939,375.384460 349.842712,376.999359 
	C323.092377,376.999359 296.630371,376.999359 270.168365,376.999359 
	C260.679169,376.999359 251.183868,376.805389 241.703995,377.102783 
	C238.307693,377.209320 236.684341,375.947388 235.235184,373.143036 
	C229.268021,361.595734 225.486816,349.391296 225.175674,336.416290 
	C224.772675,319.611359 224.972519,302.790222 225.095093,285.977356 
	C225.106308,284.438171 226.029327,282.379761 227.221420,281.458038 
	C236.950943,273.935242 246.845230,266.625519 257.002045,259.016785 
	C266.459167,266.108337 275.864197,273.160828 285.483429,280.373962 
	C284.730927,282.091614 284.081055,283.575012 283.280579,285.429382 
z"/>
<path fill="#646C77" opacity="1.000000" stroke="none" 
	d="
M436.409668,249.138092 
	C422.642578,249.057632 409.317078,249.030746 395.991608,248.998947 
	C377.609528,248.955109 365.509857,238.981903 361.952240,220.980103 
	C361.635468,219.377197 361.145020,217.808624 360.571106,215.589523 
	C355.560394,216.566483 350.762817,217.501892 345.365295,218.554260 
	C346.138184,222.557571 346.434204,226.230515 347.608246,229.597275 
	C348.898773,233.298203 347.718262,234.981918 344.398651,236.421600 
	C339.824066,238.405579 335.432068,240.813461 330.977234,243.070129 
	C323.196533,247.011612 317.479004,252.941330 314.963715,261.332336 
	C313.066589,267.661102 307.400208,264.479065 303.727448,266.212067 
	C302.911255,266.597168 300.010437,264.085968 299.041168,262.361969 
	C294.799713,254.818329 297.160522,245.552628 304.575134,240.297104 
	C310.538757,236.070007 316.702179,232.124817 323.235779,227.747131 
	C320.681366,222.563782 318.194153,217.555908 315.740906,212.531464 
	C308.622498,197.952194 316.879028,184.892715 333.147797,185.022537 
	C369.925995,185.316025 405.667419,191.619171 440.295471,203.959564 
	C466.264282,213.214050 479.816589,242.255371 469.786133,266.926971 
	C465.480560,266.250824 461.092682,265.677429 456.770752,264.784729 
	C455.913422,264.607635 455.109314,263.307953 454.619843,262.352234 
	C450.861115,255.012756 444.910614,250.692902 436.409668,249.138092 
z"/>
<path fill="#EECEB3" opacity="1.000000" stroke="none" 
	d="
M151.202545,133.303619 
	C150.167587,145.036316 149.674423,156.379364 148.062531,167.561172 
	C145.357330,186.327164 128.943039,200.567123 110.052971,200.879608 
	C103.613632,200.986115 96.936241,200.927078 90.750397,199.396622 
	C73.913506,195.230881 62.555283,180.649200 61.099873,162.767624 
	C59.844086,147.338684 58.559036,131.911942 57.220753,116.489960 
	C56.328831,106.211685 59.109474,101.357292 68.493332,97.314911 
	C79.473633,92.584808 90.419708,87.767235 101.505966,83.298538 
	C103.521706,82.486031 106.426147,82.460915 108.431992,83.275215 
	C119.968903,87.958786 131.376343,92.964249 142.792389,97.941551 
	C150.380386,101.249870 153.434052,106.201256 152.884033,114.439011 
	C152.473846,120.582352 151.798630,126.707985 151.202545,133.303619 
M107.084030,168.893570 
	C98.261093,169.576019 92.209442,165.377319 87.999474,157.547363 
	C83.225212,159.934402 78.683525,162.205154 74.159859,164.466888 
	C79.310410,176.978806 91.279152,184.932251 104.761169,185.001266 
	C118.508301,185.071640 130.620193,177.139648 135.853897,164.428833 
	C131.329193,162.170471 126.785728,159.902740 121.983551,157.505905 
	C118.841087,163.580795 114.411751,167.546890 107.084030,168.893570 
z"/>
<path fill="#B17845" opacity="1.000000" stroke="none" 
	d="
M380.216309,41.004051 
	C378.827271,42.166958 377.168335,43.300594 377.125549,44.492268 
	C376.874542,51.483009 377.080139,58.488918 376.937561,65.485756 
	C376.906708,67.000687 376.553192,69.064507 375.541595,69.908104 
	C371.095490,73.615807 366.353638,76.968811 360.986084,81.000938 
	C359.286804,68.771896 355.066467,58.484711 346.672546,49.936554 
	C357.755890,37.351192 371.125214,29.239311 387.189240,26.481817 
	C402.517365,23.850655 418.099365,23.606195 433.384338,27.000889 
	C465.384369,34.107891 488.599396,63.102715 488.979370,95.903366 
	C489.056580,102.568901 488.823334,109.241913 489.048859,115.900780 
	C489.279327,122.704895 488.132324,129.056656 485.094696,135.230255 
	C481.906403,141.710022 481.933167,148.617935 485.198761,155.027740 
	C489.960052,164.373428 490.067871,173.357147 485.290558,182.744766 
	C481.667389,189.864410 482.271118,197.201614 485.735107,204.404495 
	C489.573181,212.385239 490.361115,220.511307 485.922272,229.926514 
	C480.230743,214.572098 471.113586,203.079971 457.568939,194.594025 
	C470.967133,177.688034 468.655121,157.341843 470.936218,138.043976 
	C471.717804,131.431549 471.977356,124.758667 472.695221,118.137238 
	C474.644928,100.153702 464.723328,88.808006 446.606323,89.060043 
	C428.276611,89.315033 411.816895,84.382530 397.233948,73.130661 
	C394.196716,70.787178 392.721283,68.397629 392.900177,64.415680 
	C393.242004,56.806530 392.999451,49.171135 392.999451,41.001591 
	C388.595581,41.001591 384.644318,41.001591 380.216309,41.004051 
z"/>
<path fill="#B17846" opacity="1.000000" stroke="none" 
	d="
M47.747059,92.914124 
	C46.128719,95.980148 44.153706,97.187798 40.797470,97.141167 
	C37.043350,97.089005 33.274666,98.084663 29.461308,98.631660 
	C14.373839,60.114082 38.937317,26.899679 72.395248,25.282440 
	C94.168098,24.230021 116.038666,24.805754 137.855133,25.209528 
	C149.366699,25.422581 159.477936,30.118216 168.176071,37.728008 
	C170.165024,39.468098 171.373535,40.993252 170.167160,44.068375 
	C167.568329,50.692905 169.382812,57.133896 172.592453,63.687283 
	C164.137421,68.877556 156.116623,74.367882 153.784241,85.191460 
	C141.390457,79.888969 129.090775,75.305428 117.448349,69.421394 
	C108.826157,65.063782 101.419312,64.724182 92.744598,69.314201 
	C82.778404,74.587570 71.883682,78.078568 61.720291,83.018600 
	C56.757343,85.430901 52.538548,89.374168 47.747059,92.914124 
z"/>
<path fill="#EECEB2" opacity="1.000000" stroke="none" 
	d="
M163.684662,257.107269 
	C169.109863,257.983978 173.997116,259.914001 177.848999,264.515625 
	C177.685318,266.462219 177.064453,268.130157 177.019379,269.813538 
	C176.662689,283.131805 177.035858,296.502289 175.983551,309.761353 
	C174.553772,327.776184 165.913147,342.354767 151.610107,353.298126 
	C137.441299,364.138824 118.689323,363.667999 105.011040,352.298462 
	C89.545265,339.443115 81.563446,322.811218 81.031784,302.694611 
	C80.860168,296.201172 80.988228,289.699493 81.000053,283.201630 
	C81.019882,272.313263 85.708260,266.791168 97.014175,264.722778 
	C97.014175,262.497620 97.014175,260.192139 97.088181,257.445557 
	C102.665001,256.975525 108.167816,256.946594 114.322540,257.198364 
	C117.077271,265.802490 119.180115,274.125946 121.382210,282.842255 
	C126.727928,281.482391 131.764374,280.201202 136.727936,278.938568 
	C134.941238,271.271606 133.289429,264.183502 131.637634,257.095398 
	C136.313477,257.037079 140.989304,256.978790 146.317322,257.201904 
	C149.071106,265.796173 151.172714,274.109009 153.373306,282.813293 
	C158.720367,281.464020 163.756775,280.193115 168.701782,278.945282 
	C166.939407,271.274200 165.312027,264.190735 163.684662,257.107269 
M101.966591,331.506042 
	C110.667953,342.311615 121.845634,346.803894 135.536713,344.243866 
	C147.101669,342.081421 155.009308,335.233246 160.130936,324.545715 
	C155.172913,322.074066 150.746490,319.867432 146.350998,317.676208 
	C137.185486,332.823120 120.700729,332.684387 111.674431,317.709656 
	C107.164703,319.964508 102.631104,322.231293 97.775246,324.659210 
	C99.165939,326.987671 100.347359,328.965729 101.966591,331.506042 
z"/>
<path fill="#EECEB3" opacity="1.000000" stroke="none" 
	d="
M453.983337,148.995331 
	C453.224274,156.404022 452.612427,163.366806 451.671051,170.284790 
	C451.364471,172.537964 450.338013,174.736023 449.401642,176.853531 
	C444.567474,187.785706 443.843903,188.086227 432.521606,184.515656 
	C429.840240,183.670059 427.149780,182.853271 425.120514,182.226257 
	C430.278015,176.831696 435.511963,171.357178 441.370605,165.229263 
	C435.414703,162.237915 430.897247,159.969025 426.441254,157.731003 
	C413.904694,172.987488 403.128052,173.006180 391.699371,157.690033 
	C387.231689,159.927048 382.692963,162.199631 377.820221,164.639481 
	C379.470886,167.443756 380.963806,169.980072 382.706757,172.941147 
	C377.116852,172.208420 371.928894,171.528366 366.032410,170.755447 
	C365.061249,160.169281 364.070770,149.615387 363.131927,139.056870 
	C362.468597,131.597137 362.053040,124.110947 361.207031,116.672943 
	C360.066772,106.647682 363.288574,98.753769 371.656006,92.948044 
	C375.885406,90.013489 379.929932,86.812508 384.286011,83.561867 
	C384.969086,83.990700 385.675262,84.343056 386.277405,84.825310 
	C403.422852,98.556717 422.982971,105.208931 444.936218,105.016586 
	C455.737366,104.921944 457.712982,107.372620 456.614624,118.188164 
	C455.589050,128.287064 454.861298,138.416183 453.983337,148.995331 
z"/>
<path fill="#646C77" opacity="1.000000" stroke="none" 
	d="
M318.991486,90.013809 
	C309.553040,81.545876 299.098572,79.177010 287.187683,82.474525 
	C284.946198,83.095085 282.168243,83.014061 279.951508,82.292763 
	C261.828735,76.395752 251.760757,63.703976 249.133484,44.948002 
	C248.975525,43.820248 248.884094,42.683174 248.733231,41.286720 
	C243.636002,41.286720 238.708405,41.286720 233.189011,41.286720 
	C232.823730,48.385895 234.213654,55.145226 236.966919,61.518433 
	C238.624603,65.355614 238.161057,67.428375 234.329636,69.385864 
	C229.153763,72.030228 224.388931,75.470070 219.262283,78.223267 
	C216.245148,79.843567 212.949020,81.091713 209.637741,81.987106 
	C202.106873,84.023499 196.132980,88.135178 191.217834,94.145027 
	C190.062134,95.558144 187.902298,96.480057 186.038345,96.913017 
	C182.503250,97.734161 178.753555,97.697685 175.272369,98.663773 
	C172.442947,99.448982 171.264862,98.305611 170.201843,96.161507 
	C167.646210,91.006927 169.162201,85.374283 174.369064,81.763474 
	C180.524185,77.495094 186.814041,73.421333 193.031067,69.241737 
	C194.368744,68.342438 195.644684,67.351334 197.785172,65.794296 
	C194.290726,62.521217 191.044205,59.696960 188.050125,56.626537 
	C183.244736,51.698612 184.132721,46.747711 190.382080,44.021774 
	C202.275620,38.833889 214.192245,33.690899 226.199677,28.774437 
	C238.786850,23.620602 251.566025,23.633831 264.137634,28.756449 
	C284.474304,37.043114 304.804230,45.360527 324.953644,54.088245 
	C342.701538,61.775745 350.105499,82.491165 341.435425,98.521057 
	C336.150635,97.987717 330.738495,98.094765 325.765228,96.670029 
	C323.194794,95.933640 321.403229,92.478447 318.991486,90.013809 
z"/>
<path fill="#EDCEB2" opacity="1.000000" stroke="none" 
	d="
M230.645813,141.885345 
	C239.785599,136.717880 242.036209,134.040283 248.270523,121.136330 
	C254.007629,121.136330 259.813416,121.136330 265.619659,121.139275 
	C277.519165,143.414658 288.538055,148.727661 310.973663,142.143967 
	C309.596436,152.714020 309.293427,163.104980 306.730103,172.904755 
	C302.416534,189.395905 286.613922,200.653091 269.490448,200.963928 
	C261.995239,201.099976 254.495697,201.020767 246.998230,200.998795 
	C224.766037,200.933640 208.515289,187.061768 205.434967,165.155426 
	C204.395584,157.763626 204.164871,150.258118 203.507782,142.099274 
	C212.742874,145.709564 221.582657,146.146927 230.645813,141.885345 
M273.255798,180.895065 
	C279.897369,177.060364 284.958252,171.837570 288.012085,164.465103 
	C283.165436,162.082169 278.603363,159.839172 273.917816,157.535446 
	C270.105499,164.865097 264.651672,169.005127 256.665833,168.950043 
	C248.691833,168.895065 243.640884,164.094482 239.850388,157.597076 
	C235.024292,160.021179 230.595688,162.245621 226.186203,164.460464 
	C233.391632,182.510941 253.993027,189.853729 273.255798,180.895065 
z"/>
<path fill="#EFCFB3" opacity="1.000000" stroke="none" 
	d="
M144.909637,374.519623 
	C147.882935,381.753143 151.250259,388.967163 152.748337,396.550415 
	C153.981949,402.795013 153.072525,409.478455 152.977829,415.965424 
	C152.891724,421.862122 149.913895,424.916595 144.070740,424.972076 
	C133.923233,425.068451 123.773270,425.073700 113.626030,424.962585 
	C108.481087,424.906281 105.293465,422.014069 105.056709,417.165100 
	C104.348091,402.652588 104.513161,388.247925 112.314850,374.492645 
	C122.649803,377.660980 133.589554,378.027008 144.909637,374.519623 
z"/>
<path fill="#74B0F0" opacity="1.000000" stroke="none" 
	d="
M16.998739,344.000000 
	C16.998745,318.541412 17.437788,293.571899 16.816120,268.628815 
	C16.498644,255.890778 24.701778,246.824005 39.320629,249.339066 
	C28.860754,275.344788 34.104141,302.572388 33.121601,329.305054 
	C32.658382,341.908203 31.139677,354.126221 26.130638,365.757172 
	C24.819702,368.801147 23.440201,371.846222 21.735245,374.675720 
	C20.983986,375.922546 19.340876,376.631958 16.998739,378.435394 
	C16.998739,366.028381 16.998739,355.264191 16.998739,344.000000 
z"/>
<path fill="#EECEB2" opacity="1.000000" stroke="none" 
	d="
M382.005096,376.997223 
	C389.139618,376.980835 395.775055,376.963348 402.410522,376.954926 
	C402.562927,376.954742 402.715485,377.057220 403.237732,377.244141 
	C404.395966,380.586212 405.858307,384.110260 406.746765,387.773499 
	C407.030396,388.942932 406.186371,390.983582 405.185822,391.769775 
	C398.671265,396.888855 391.971619,401.772308 385.011353,406.972870 
	C378.130768,401.827545 371.202911,396.749634 364.438751,391.462341 
	C363.565582,390.779846 362.946991,388.858734 363.229340,387.777405 
	C364.183105,384.124603 365.595795,380.591644 366.838470,376.997223 
	C371.916504,376.997223 376.711273,376.997223 382.005096,376.997223 
z"/>
<path fill="#67D2F0" opacity="1.000000" stroke="none" 
	d="
M298.659729,128.933853 
	C289.416321,128.791107 283.177551,124.164474 281.351074,116.440201 
	C279.726898,109.571281 283.172546,102.279770 289.643982,98.891167 
	C297.776703,94.632668 307.533142,97.955544 311.474304,106.326202 
	C315.204651,114.249084 311.470642,124.086945 303.342163,127.598061 
	C301.985901,128.183899 300.501984,128.474167 298.659729,128.933853 
z"/>
<path fill="#67D2F0" opacity="1.000000" stroke="none" 
	d="
M210.680634,127.643280 
	C202.799286,123.052834 199.520813,116.030823 201.618546,108.788574 
	C203.660614,101.738441 209.928940,96.960342 217.084320,96.999657 
	C224.388641,97.039787 230.894119,102.159309 232.577301,109.418777 
	C233.922485,115.220375 232.322495,120.340416 228.059311,124.424934 
	C223.172195,129.107239 217.398529,130.174103 210.680634,127.643280 
z"/>
<path fill="#ECCDB1" opacity="1.000000" stroke="none" 
	d="
M251.028015,216.994812 
	C260.144531,216.994812 268.766571,216.994812 277.935455,216.994812 
	C279.070282,218.931854 280.561279,221.476868 282.310425,224.462524 
	C274.279419,229.294449 266.408813,234.110184 258.419128,238.719589 
	C257.567993,239.210632 255.812439,238.853851 254.829697,238.282639 
	C247.232376,233.866653 239.722061,229.300934 231.893372,224.606873 
	C233.040741,222.487137 233.882401,220.321365 235.271637,218.596634 
	C236.093613,217.576157 237.762863,216.757675 239.082504,216.709518 
	C242.890991,216.570587 246.715393,216.868454 251.028015,216.994812 
z"/>
<path fill="#EACBAF" opacity="1.000000" stroke="none" 
	d="
M298.028992,302.600525 
	C293.680298,291.227478 304.026184,279.664673 313.688507,281.448608 
	C314.538849,291.746765 315.395905,302.125824 316.250946,312.481049 
	C307.511230,313.637909 302.475342,310.914062 298.028992,302.600525 
z"/>
<path fill="#EACBAF" opacity="1.000000" stroke="none" 
	d="
M456.176819,282.446228 
	C457.729889,281.818024 459.330933,281.174805 460.708344,281.494598 
	C468.846252,283.384247 474.209320,291.522369 472.835938,299.569489 
	C471.345795,308.301147 463.669342,313.682281 453.779358,312.544464 
	C454.558899,302.669769 455.340179,292.772949 456.176819,282.446228 
z"/>
<path fill="#ECCCB1" opacity="1.000000" stroke="none" 
	d="
M262.601746,105.007034 
	C257.504333,105.007095 252.863708,105.007095 249.286667,105.007095 
	C244.925980,98.507133 241.009445,92.669228 236.860748,86.485268 
	C239.846497,84.666100 243.632324,82.359467 246.745560,80.462624 
	C254.463638,85.976570 261.826416,91.236687 269.414825,96.657974 
	C266.625549,98.471725 269.250183,104.912941 262.601746,105.007034 
z"/>
<path fill="#EACAAF" opacity="1.000000" stroke="none" 
	d="
M179.372131,143.963791 
	C171.106583,139.515533 167.612808,132.915344 169.327423,125.597809 
	C171.051605,118.239563 176.933121,113.502060 184.711945,113.291176 
	C184.827469,113.728065 185.020203,114.182755 185.060730,114.650635 
	C185.918076,124.549088 186.758301,134.449020 187.676498,145.224487 
	C184.771744,144.800262 182.260574,144.433517 179.372131,143.963791 
z"/>
<path fill="#EACAAF" opacity="1.000000" stroke="none" 
	d="
M25.143888,131.503571 
	C24.882547,120.400246 30.708811,113.685875 40.973255,113.227432 
	C41.846519,123.569855 42.721302,133.930283 43.594128,144.267548 
	C35.115356,146.245865 28.339079,141.641190 25.143888,131.503571 
z"/>
<path fill="#EACAAF" opacity="1.000000" stroke="none" 
	d="
M344.181274,133.839050 
	C340.378082,142.221725 335.244568,145.367920 326.408325,144.682190 
	C327.274689,134.206665 328.140991,123.732132 329.005707,113.276825 
	C340.216156,113.614838 346.700378,122.395767 344.181274,133.839050 
z"/>
<path fill="#9BCE65" opacity="1.000000" stroke="none" 
	d="
M231.877899,257.861450 
	C230.254868,259.041748 228.919235,260.014771 227.262604,261.221680 
	C223.084625,254.263397 219.011642,247.479980 215.043655,240.871429 
	C218.423965,236.733261 221.631760,236.502579 225.806564,239.477142 
	C230.919266,243.119934 236.536453,246.054657 242.566940,249.674561 
	C238.868683,252.511688 235.516983,255.082947 231.877899,257.861450 
z"/>
<path fill="#5A98E6" opacity="1.000000" stroke="none" 
	d="
M353.442627,403.290405 
	C358.520050,407.115753 363.292236,410.716339 368.761078,414.842499 
	C362.069427,417.531494 355.999329,419.970734 349.497986,422.583252 
	C347.020508,416.437439 344.679413,410.629974 341.769592,403.411621 
	C346.055603,403.281158 349.596497,403.173401 353.442627,403.290405 
z"/>
<path fill="#5A98E5" opacity="1.000000" stroke="none" 
	d="
M427.370422,405.041077 
	C425.152222,410.945129 422.976135,416.490112 420.575562,422.607117 
	C414.166229,420.038116 408.086792,417.601318 401.199005,414.840515 
	C406.985687,410.504059 411.776794,405.985870 417.409454,403.124207 
	C419.850037,401.884277 424.025238,404.058563 427.370422,405.041077 
z"/>
<path fill="#AD7644" opacity="1.000000" stroke="none" 
	d="
M328.127594,160.991440 
	C335.055847,159.438583 341.539978,157.888260 348.492828,156.225845 
	C348.836395,159.807159 349.280487,164.436035 349.745148,169.279602 
	C341.178192,169.279602 332.973236,169.279602 324.072052,169.279602 
	C325.846436,166.462280 322.161377,162.080338 328.127594,160.991440 
z"/>
<path fill="#96C762" opacity="1.000000" stroke="none" 
	d="
M282.026428,246.588135 
	C281.547852,249.922409 281.126160,252.873947 280.590607,256.622650 
	C277.555084,254.384201 274.735962,252.305344 271.288086,249.762817 
	C275.339325,247.319336 278.809570,245.226273 282.840820,242.794830 
	C282.493317,244.359634 282.288330,245.282516 282.026428,246.588135 
z"/>
<path fill="#060504" opacity="1.000000" stroke="none" 
	d="
M163.453568,256.816406 
	C165.312027,264.190735 166.939407,271.274200 168.701782,278.945282 
	C163.756775,280.193115 158.720367,281.464020 153.373306,282.813293 
	C151.172714,274.109009 149.071106,265.796173 146.826019,257.158020 
	C146.339813,254.927872 145.997070,253.022995 145.601196,250.822876 
	C150.728180,249.525360 155.502502,248.317093 160.748108,246.989563 
	C161.587830,250.225754 162.405151,253.375626 163.453568,256.816406 
z"/>
<path fill="#050504" opacity="1.000000" stroke="none" 
	d="
M131.424469,256.795959 
	C133.289429,264.183502 134.941238,271.271606 136.727936,278.938568 
	C131.764374,280.201202 126.727928,281.482391 121.382210,282.842255 
	C119.180115,274.125946 117.077271,265.802490 114.831192,257.153259 
	C114.345169,255.064224 114.002396,253.300995 113.541931,250.932388 
	C118.531036,249.633240 123.402206,248.364792 128.742737,246.974136 
	C129.579529,250.201996 130.395401,253.349243 131.424469,256.795959 
z"/>
<path fill="#020101" opacity="1.000000" stroke="none" 
	d="
M360.999634,334.099701 
	C361.064941,332.172424 361.130280,330.730103 361.208679,328.999573 
	C370.990601,328.999573 380.450623,329.002930 389.910645,328.998688 
	C401.665314,328.993439 406.885223,324.768585 409.321136,313.185089 
	C414.408600,313.185089 419.524414,313.185089 424.629120,313.185089 
	C425.534302,329.372894 411.475555,344.347778 394.597748,344.890503 
	C383.632324,345.243134 372.646301,344.956909 360.999634,344.956909 
	C360.999634,341.427094 360.999634,338.005890 360.999634,334.099701 
z"/>
<path fill="#040403" opacity="1.000000" stroke="none" 
	d="
M107.496582,168.842194 
	C114.411751,167.546890 118.841087,163.580795 121.983551,157.505905 
	C126.785728,159.902740 131.329193,162.170471 135.853897,164.428833 
	C130.620193,177.139648 118.508301,185.071640 104.761169,185.001266 
	C91.279152,184.932251 79.310410,176.978806 74.159859,164.466888 
	C78.683525,162.205154 83.225212,159.934402 87.999474,157.547363 
	C92.209442,165.377319 98.261093,169.576019 107.496582,168.842194 
z"/>
<path fill="#040403" opacity="1.000000" stroke="none" 
	d="
M101.747688,331.224915 
	C100.347359,328.965729 99.165939,326.987671 97.775246,324.659210 
	C102.631104,322.231293 107.164703,319.964508 111.674431,317.709656 
	C120.700729,332.684387 137.185486,332.823120 146.350998,317.676208 
	C150.746490,319.867432 155.172913,322.074066 160.130936,324.545715 
	C155.009308,335.233246 147.101669,342.081421 135.536713,344.243866 
	C121.845634,346.803894 110.667953,342.311615 101.747688,331.224915 
z"/>
<path fill="#040403" opacity="1.000000" stroke="none" 
	d="
M272.908325,181.037460 
	C253.993027,189.853729 233.391632,182.510941 226.186203,164.460464 
	C230.595688,162.245621 235.024292,160.021179 239.850388,157.597076 
	C243.640884,164.094482 248.691833,168.895065 256.665833,168.950043 
	C264.651672,169.005127 270.105499,164.865097 273.917816,157.535446 
	C278.603363,159.839172 283.165436,162.082169 288.012085,164.465103 
	C284.958252,171.837570 279.897369,177.060364 272.908325,181.037460 
z"/>
</svg>